<svg width="81" height="80" viewBox="0 0 81 80" fill="none" xmlns="http://www.w3.org/2000/svg">
<g clip-path="url(#clip0_253_23194)">
<path d="M78.567 40.9663C78.567 62.5239 61.0914 80.0001 39.5338 80.0001C17.9762 80.0001 0.5 62.5239 0.5 40.9663C0.5 19.4087 17.9762 1.93311 39.5338 1.93311C61.0914 1.93311 78.567 19.4087 78.567 40.9663Z" fill="#8AC8FF"/>
<path d="M39.959 30.1196H20.2812C11.3011 30.1196 4.02148 37.3993 4.02148 46.3794C4.02148 52.8754 7.8313 58.4814 13.3379 61.0858C15.5492 62.132 16.9677 64.35 16.9677 66.7963V70.2844C16.9677 71.6107 18.6815 72.1393 19.428 71.0437L23.2799 65.3943C24.4554 63.6707 26.4067 62.6392 28.4929 62.6392H39.959C48.9391 62.6392 56.2188 55.3595 56.2188 46.3794C56.2181 37.3993 48.9385 30.1196 39.959 30.1196Z" fill="#F8FAFD"/>
<path d="M19.5513 61.0858C14.0447 58.4814 10.2349 52.8754 10.2349 46.3794C10.2349 37.3993 17.5145 30.1196 26.4946 30.1196H20.2812C11.3011 30.1196 4.02148 37.3993 4.02148 46.3794C4.02148 52.8754 7.83069 58.4814 13.3373 61.0858C15.5492 62.132 16.967 64.35 16.967 66.7963V70.2844C16.967 71.6107 18.6809 72.1393 19.428 71.0437L23.0785 65.6891C22.722 63.6969 21.4226 61.9708 19.5513 61.0858Z" fill="#DDDDDD"/>
<path d="M22.1156 46.6902C22.1156 48.3479 20.7722 49.6919 19.1145 49.6919C17.4568 49.6919 16.1128 48.3479 16.1128 46.6902C16.1128 45.0325 17.4568 43.6885 19.1145 43.6885C20.7722 43.6885 22.1156 45.0325 22.1156 46.6902Z" fill="#7956BA"/>
<path d="M33.1221 46.6902C33.1221 48.3479 31.7781 49.6919 30.1204 49.6919C28.4626 49.6919 27.1187 48.3479 27.1187 46.6902C27.1187 45.0325 28.4626 43.6885 30.1204 43.6885C31.7781 43.6885 33.1221 45.0325 33.1221 46.6902Z" fill="#7956BA"/>
<path d="M44.1279 46.6902C44.1279 48.3479 42.7839 49.6919 41.1262 49.6919C39.4685 49.6919 38.1245 48.3479 38.1245 46.6902C38.1245 45.0325 39.4685 43.6885 41.1262 43.6885C42.7839 43.6885 44.1279 45.0325 44.1279 46.6902Z" fill="#7956BA"/>
<path d="M38.9824 0H58.6595C67.6396 0 74.9193 7.27966 74.9193 16.2598C74.9193 22.7557 71.1101 28.3612 65.6035 30.9662C63.3916 32.0123 61.9738 34.2303 61.9738 36.6766V40.1648C61.9738 41.4905 60.2599 42.0197 59.5128 40.9241L55.6609 35.274C54.486 33.5504 52.5347 32.5195 50.4479 32.5195H38.9824C30.0023 32.5195 22.7227 25.2399 22.7227 16.2598C22.7227 7.27966 30.0023 0 38.9824 0Z" fill="#01529A"/>
<path opacity="0.2" d="M57.1398 30.4485H45.6737C36.6936 30.4485 29.4139 23.1682 29.4139 14.1887C29.4139 8.26892 32.578 3.08826 37.307 0.244629C29.1143 1.08325 22.7227 8.00464 22.7227 16.4189C22.7227 25.399 30.0023 32.6787 38.9824 32.6787H50.4485C52.5347 32.6787 54.486 33.7102 55.6609 35.4338L59.5128 41.0833C60.2599 42.1788 61.9738 41.6503 61.9738 40.324V36.8358C61.9738 35.7506 62.2539 34.7106 62.7581 33.7975L62.3522 33.2036C61.1772 31.4794 59.226 30.4485 57.1398 30.4485Z" fill="white"/>
<path d="M62.8291 16.5706C62.8291 18.2283 61.4851 19.5723 59.8274 19.5723C58.1697 19.5723 56.8257 18.2283 56.8257 16.5706C56.8257 14.9128 58.1697 13.5688 59.8274 13.5688C61.4851 13.5688 62.8291 14.9128 62.8291 16.5706Z" fill="#F8FAFD"/>
<path d="M51.8226 16.5706C51.8226 18.2283 50.4792 19.5723 48.8215 19.5723C47.1638 19.5723 45.8198 18.2283 45.8198 16.5706C45.8198 14.9128 47.1638 13.5688 48.8215 13.5688C50.4792 13.5688 51.8226 14.9128 51.8226 16.5706Z" fill="#F8FAFD"/>
<path d="M40.8169 16.5706C40.8169 18.2283 39.4729 19.5723 37.8152 19.5723C36.1575 19.5723 34.8135 18.2283 34.8135 16.5706C34.8135 14.9128 36.1575 13.5688 37.8152 13.5688C39.4729 13.5688 40.8169 14.9128 40.8169 16.5706Z" fill="#F8FAFD"/>
</g>
<defs>
<clipPath id="clip0_253_23194">
<rect width="80" height="80" fill="white" transform="translate(0.5)"/>
</clipPath>
</defs>
</svg>
