<svg width="77" height="80" viewBox="0 0 77 80" fill="none" xmlns="http://www.w3.org/2000/svg">
<path d="M60.1825 42.2591C59.9533 42.3992 59.69 42.4735 59.421 42.4735C59.1519 42.4735 58.8886 42.3994 58.6596 42.2591C48.585 36.0942 42.3411 29.8442 42.3411 17.7519V12.8716H8.6652C8.22066 12.8716 7.86035 13.2319 7.86035 13.6764V59.5481H26.8566C27.6582 59.5481 28.3102 60.2002 28.3102 61.0016V73.7196H61.6627C62.1072 73.7196 62.4676 73.3592 62.4676 72.9147V40.8131C61.7299 41.2975 60.9679 41.7786 60.1825 42.2591Z" fill="#F8FAFD"/>
<path d="M14.6371 59.5481V13.6764C14.6371 13.2319 14.9974 12.8716 15.4419 12.8716H8.66519C8.22066 12.8716 7.86035 13.2319 7.86035 13.6764V59.5481H14.6371Z" fill="#F4F4F4"/>
<path d="M42.7552 22.8162H21.1221C20.4747 22.8162 19.9502 23.3408 19.9502 23.988C19.9502 24.6352 20.4747 25.1599 21.1221 25.1599H43.2818C43.0718 24.4066 42.8958 23.6263 42.7552 22.8162Z" fill="#E1E1E1"/>
<path d="M44.5891 28.667H21.1221C20.4747 28.667 19.9502 29.1917 19.9502 29.8389C19.9502 30.4861 20.4747 31.0107 21.1221 31.0107H45.8889C45.4097 30.2596 44.9758 29.48 44.5891 28.667Z" fill="#E1E1E1"/>
<path d="M48.6254 34.5178H32.8657C32.2184 34.5178 31.6938 35.0425 31.6938 35.6897C31.6938 36.3369 32.2184 36.8616 32.8657 36.8616H49.2056C49.6862 36.8616 50.0985 36.572 50.2795 36.1581C49.6993 35.6241 49.1476 35.0781 48.6254 34.5178Z" fill="#E1E1E1"/>
<path d="M28.0369 36.8616H21.1221C20.4747 36.8616 19.9502 36.3369 19.9502 35.6897C19.9502 35.0425 20.4747 34.5178 21.1221 34.5178H28.0369C28.6843 34.5178 29.2088 35.0425 29.2088 35.6897C29.2088 36.3369 28.6843 36.8616 28.0369 36.8616Z" fill="#E1E1E1"/>
<path d="M49.2058 42.7122H21.1221C20.4747 42.7122 19.9502 42.1875 19.9502 41.5403C19.9502 40.8931 20.4747 40.3684 21.1221 40.3684H49.2057C49.853 40.3684 50.3775 40.8931 50.3775 41.5403C50.3775 42.1875 49.853 42.7122 49.2058 42.7122Z" fill="#E1E1E1"/>
<path d="M49.206 48.563H41.7192C41.0719 48.563 40.5474 48.0383 40.5474 47.3911C40.5474 46.7439 41.0719 46.2192 41.7192 46.2192H49.206C49.8533 46.2192 50.3778 46.7439 50.3778 47.3911C50.3778 48.0383 49.8531 48.563 49.206 48.563Z" fill="#E1E1E1"/>
<path d="M37.3729 46.2192H21.6982C22.3536 46.9147 22.9103 47.7031 23.3473 48.563H37.3731C38.0204 48.563 38.545 48.0383 38.545 47.3911C38.545 46.7439 38.0203 46.2192 37.3729 46.2192Z" fill="#E1E1E1"/>
<path d="M49.2056 52.0698H24.3794C24.4133 52.4047 24.4308 52.7444 24.4308 53.0881V54.4136H49.2056C49.853 54.4136 50.3775 53.8889 50.3775 53.2417C50.3775 52.5945 49.8528 52.0698 49.2056 52.0698Z" fill="#E1E1E1"/>
<path d="M49.206 57.9207H24.4312V59.5482H26.8568C27.389 59.5482 27.8541 59.8366 28.1072 60.2644H49.2058C49.8532 60.2644 50.3777 59.7397 50.3777 59.0925C50.3777 58.4453 49.8532 57.9207 49.206 57.9207Z" fill="#E1E1E1"/>
<path d="M43.0751 7.97949C42.5296 8.25215 42.1851 8.80949 42.1851 9.41934V17.752C42.1851 30.0722 48.7315 36.367 58.578 42.3925C59.0951 42.7089 59.7471 42.7089 60.2641 42.3925C70.1108 36.367 76.6571 30.0722 76.6571 17.752V9.41934C76.6571 8.80949 76.3126 8.25215 75.7671 7.97949L60.1407 0.169805C59.6877 -0.0566016 59.1544 -0.0566016 58.7015 0.169805L43.0751 7.97949Z" fill="#8AC8FF"/>
<path d="M47.9715 15.0961V5.53247L43.0751 7.9795C42.5296 8.25216 42.1851 8.8095 42.1851 9.41935V17.752C42.1851 30.0722 48.7315 36.367 58.578 42.3925C59.0951 42.7089 59.7471 42.7089 60.264 42.3925C61.698 41.515 63.0613 40.6315 64.3454 39.7248C54.5094 33.7029 47.9715 27.4083 47.9715 15.0961Z" fill="#C7943D"/>
<path d="M59.3489 30.4116C65.4293 30.4116 70.3584 25.4825 70.3584 19.4021C70.3584 13.3217 65.4293 8.39258 59.3489 8.39258C53.2685 8.39258 48.3394 13.3217 48.3394 19.4021C48.3394 25.4825 53.2685 30.4116 59.3489 30.4116Z" fill="#4FC123"/>
<path d="M53.0083 19.4022C53.0083 14.1231 56.7247 9.71407 61.6833 8.64313C60.9306 8.48063 60.1501 8.39282 59.3489 8.39282C53.2686 8.39282 48.3394 13.3219 48.3394 19.4024C48.3394 25.4828 53.2684 30.4119 59.3489 30.4119C60.1501 30.4119 60.9306 30.3241 61.6833 30.1616C56.7247 29.0903 53.0083 24.6813 53.0083 19.4022Z" fill="#47A920"/>
<path d="M58.7795 23.7344C58.4796 23.7344 58.1796 23.62 57.9507 23.3911L54.331 19.7714C53.8734 19.3137 53.8734 18.5717 54.331 18.1142C54.7888 17.6566 55.5307 17.6566 55.9884 18.1142L58.7793 20.9051L63.561 16.1233C64.0189 15.6656 64.7607 15.6656 65.2184 16.1233C65.676 16.5809 65.676 17.323 65.2184 17.7805L59.6081 23.3909C59.3793 23.62 59.0793 23.7344 58.7795 23.7344Z" fill="white"/>
<path d="M9.05107 59.5483V53.0885C9.05107 50.1365 11.4528 47.7346 14.405 47.7346C17.3572 47.7346 19.7589 50.1363 19.7589 53.0885V59.5483H24.5878V53.0883C24.5878 47.4646 20.0289 42.9055 14.405 42.9055C8.78107 42.9055 4.22217 47.4644 4.22217 53.0883V59.5483H9.05107Z" fill="#3675BB"/>
<path d="M6.95043 59.5484V53.0884C6.95043 47.9276 10.7906 43.6664 15.7689 42.9994C15.3223 42.9395 14.8675 42.9058 14.4045 42.9058C8.78074 42.9058 4.22168 47.4647 4.22168 53.0886V59.5486H6.95043V59.5484Z" fill="#2263AA"/>
<path d="M26.857 80H1.95246C1.0634 80 0.342773 79.2793 0.342773 78.3903V61.0015C0.342773 60.1125 1.0634 59.3918 1.95246 59.3918H26.857C27.746 59.3918 28.4667 60.1125 28.4667 61.0015V78.3903C28.4667 79.2793 27.7459 80 26.857 80Z" fill="#8AC8FF"/>
<path d="M7.11168 78.3903V61.0015C7.11168 60.1125 7.83231 59.3918 8.72137 59.3918H1.95246C1.0634 59.3918 0.342773 60.1125 0.342773 61.0015V78.3903C0.342773 79.2793 1.0634 80 1.95246 80H8.72137C7.83231 80 7.11168 79.2793 7.11168 78.3903Z" fill="#C7943D"/>
</svg>
