<svg width="26" height="26" viewBox="0 0 26 26" fill="none" xmlns="http://www.w3.org/2000/svg">
<path d="M23.2442 11.0002C23.3775 11.7141 23.4501 12.4605 23.4501 13.2394C23.4501 19.3321 19.3724 23.6644 13.2136 23.6644C11.8131 23.6648 10.4261 23.3892 9.13208 22.8535C7.83803 22.3177 6.66223 21.5322 5.67188 20.5418C4.68152 19.5514 3.896 18.3756 3.36022 17.0816C2.82444 15.7875 2.54889 14.4006 2.54932 13C2.54889 11.5994 2.82444 10.2125 3.36022 8.91846C3.896 7.62441 4.68152 6.44861 5.67188 5.45825C6.66223 4.46789 7.83803 3.68238 9.13208 3.1466C10.4261 2.61082 11.8131 2.33527 13.2136 2.33569C16.0931 2.33569 18.4992 3.39519 20.3452 5.11553L17.339 8.12178V8.11419C16.2199 7.04819 14.7996 6.50111 13.2136 6.50111C9.69498 6.50111 6.83498 9.47378 6.83498 12.9935C6.83498 16.5122 9.69498 19.4914 13.2136 19.4914C16.4062 19.4914 18.5794 17.6659 19.0257 15.1591H13.2136V11.0002H23.2453H23.2442Z" fill="white"/>
</svg>
