<svg width="173" height="177" viewBox="0 0 173 177" fill="none" xmlns="http://www.w3.org/2000/svg">
<path d="M168.941 36.1172C171.098 36.1172 172.848 37.8672 172.848 40.0234C172.848 42.1797 171.098 43.9297 168.941 43.9297C166.785 43.9297 165.035 42.1797 165.035 40.0234C165.035 37.8672 166.785 36.1172 168.941 36.1172Z" fill="#01529A"/>
<path d="M168.941 137.68C171.098 137.68 172.848 139.43 172.848 141.586C172.848 143.742 171.098 145.492 168.941 145.492C166.785 145.492 165.035 143.742 165.035 141.586C165.035 139.43 166.785 137.68 168.941 137.68Z" fill="#01529A"/>
<path d="M149.41 161.117C153.727 161.117 157.223 164.613 157.223 168.93C157.223 173.246 153.727 176.742 149.41 176.742C145.094 176.742 141.598 173.246 141.598 168.93C141.598 164.613 145.094 161.117 149.41 161.117Z" fill="#01529A"/>
<path d="M141.598 0.960938C143.754 0.960938 145.504 2.71094 145.504 4.86719C145.504 7.02344 143.754 8.77344 141.598 8.77344C139.441 8.77344 137.691 7.02344 137.691 4.86719C137.691 2.71094 139.441 0.960938 141.598 0.960938Z" fill="#01529A"/>
<path d="M86.9102 12.6797C43.7617 12.6797 8.78516 47.6562 8.78516 90.8047C8.78516 133.953 43.7617 168.93 86.9102 168.93C130.059 168.93 165.035 133.953 165.035 90.8047C165.035 47.6562 130.059 12.6797 86.9102 12.6797Z" fill="#8AC8FF"/>
<path d="M86.9102 149.398C54.5508 149.398 28.3164 123.164 28.3164 90.8047C28.3164 58.4453 54.5508 32.2109 86.9102 32.2109C119.27 32.2109 145.504 58.4453 145.504 90.8047C145.504 123.164 119.27 149.398 86.9102 149.398Z" fill="white"/>
<path d="M115.953 72.3359C119.004 75.3867 119.004 80.332 115.953 83.3828L88.3316 111.008L77.2848 122.055L66.234 111.008L57.9488 102.719C56.4258 101.195 55.6602 99.1953 55.6602 97.1953C55.6602 95.1953 56.4258 93.1953 57.9488 91.6715C61 88.6207 65.9453 88.6207 68.9957 91.6715L77.2848 99.9566L104.906 72.3359C106.434 70.8125 108.43 70.0469 110.43 70.0469C112.43 70.0469 114.426 70.8125 115.953 72.3359Z" fill="#01529A"/>
<path d="M28.3164 168.93C30.4727 168.93 32.2227 170.68 32.2227 172.836C32.2227 174.992 30.4727 176.742 28.3164 176.742C26.1598 176.742 24.4102 174.992 24.4102 172.836C24.4102 170.68 26.1598 168.93 28.3164 168.93Z" fill="#01529A"/>
<path d="M18.5508 8.77344C23.9453 8.77344 28.3164 13.1445 28.3164 18.5391C28.3164 23.9336 23.9453 28.3047 18.5508 28.3047C13.1559 28.3047 8.78516 23.9336 8.78516 18.5391C8.78516 13.1445 13.1559 8.77344 18.5508 8.77344Z" fill="#01529A"/>
<path d="M4.87891 40.0234C7.03516 40.0234 8.78516 41.7734 8.78516 43.9297C8.78516 46.0859 7.03516 47.8359 4.87891 47.8359C2.72227 47.8359 0.972656 46.0859 0.972656 43.9297C0.972656 41.7734 2.72227 40.0234 4.87891 40.0234Z" fill="#01529A"/>
<path d="M4.87891 137.68C7.03516 137.68 8.78516 139.43 8.78516 141.586C8.78516 143.742 7.03516 145.492 4.87891 145.492C2.72227 145.492 0.972656 143.742 0.972656 141.586C0.972656 139.43 2.72227 137.68 4.87891 137.68Z" fill="#01529A"/>
<path d="M133.785 90.8047C133.785 88.6473 132.036 86.8984 129.879 86.8984C127.722 86.8984 125.973 88.6473 125.973 90.8047C125.973 112.344 108.45 129.867 86.9102 129.867C84.7527 129.867 83.0039 131.616 83.0039 133.773V149.266C84.2953 149.351 85.5973 149.398 86.9102 149.398C88.223 149.398 89.5246 149.351 90.8164 149.266V137.518C114.842 135.527 133.785 115.336 133.785 90.8047Z" fill="#DDDDDD"/>
<path d="M40.0352 90.8047C40.0352 92.9617 41.784 94.7109 43.9414 94.7109C46.0984 94.7109 47.8477 92.9617 47.8477 90.8047C47.8477 69.2656 65.3707 51.7422 86.9102 51.7422C89.0672 51.7422 90.8164 49.9934 90.8164 47.8359V32.3437C89.5246 32.2586 88.223 32.2109 86.9102 32.2109C85.5973 32.2109 84.2953 32.2586 83.0039 32.3437V44.091C58.9781 46.0828 40.0352 66.2734 40.0352 90.8047Z" fill="#DDDDDD"/>
</svg>
