<svg width="78" height="80" viewBox="0 0 78 80" fill="none" xmlns="http://www.w3.org/2000/svg">
<path d="M41.3496 79.9127L63.0452 71.3281C71.6023 64.3079 77.0625 53.6511 77.0625 41.7188C77.0625 20.5768 59.9232 3.4375 38.7812 3.4375C17.6393 3.4375 0.5 20.5768 0.5 41.7188C0.5 62.8613 17.6393 80 38.7812 80C39.6449 80 40.5006 79.9689 41.3496 79.9127Z" fill="#27A3FF"/>
<path d="M61.2411 49.8358C61.5463 46.1414 60.9835 42.4396 59.3478 39.1125C55.1223 30.517 56.0916 29.8932 55.9603 21.3623C55.9603 19.6191 54.5474 18.2068 52.8048 18.2068C51.0616 18.2068 49.6493 19.6191 49.6493 21.3623C49.6493 22.4878 49.6493 53.2111 49.6493 53.0908C49.6493 53.5828 49.5968 54.0631 49.4998 54.5264V59.0686C49.4998 62.8961 46.3857 66.0107 42.5582 66.0107C40.0161 66.0107 31.2496 66.0107 25.2847 66.0107C27.9379 69.7009 31.5682 72.5909 35.7815 74.3408C35.8077 74.3512 35.834 74.3622 35.8602 74.3732C38.395 75.4443 40.3304 77.464 41.3497 79.9127C49.5583 79.3689 57.0602 76.2396 63.0453 71.3287L60.6936 62.6892C60.3579 61.4545 60.2395 60.1709 60.3439 58.8959L61.2411 49.8358Z" fill="#F9CFA9"/>
<path d="M13.5642 18.3173L12.6029 17.4268C11.1215 16.0535 8.78572 16.1426 7.41304 17.6246C6.04036 19.1059 6.12947 21.4417 7.6108 22.8144L13.5642 28.3307V18.3173Z" fill="#F9CFA9"/>
<path d="M45.1283 0H18.1416C15.5232 0 13.3931 2.13074 13.3931 4.74915V61.6211C13.3931 64.2395 15.5232 66.3702 18.1416 66.3702H45.1283C47.7467 66.3702 49.8774 64.2395 49.8774 61.6211V4.74915C49.8774 2.13074 47.7467 0 45.1283 0V0Z" fill="#3D4EC6"/>
<path d="M22.5369 3.52173C22.2799 3.13965 22.1298 2.68005 22.1298 2.18506C22.1298 1.21338 22.7084 0.378418 23.5385 0H18.1417C15.519 0 13.3926 2.12646 13.3926 4.74915V61.6211C13.3926 64.2438 15.519 66.3696 18.1417 66.3696H23.879V7.68372C23.879 6.19019 23.3706 4.76135 22.5369 3.52173Z" fill="#01529A"/>
<path d="M16.1421 29.9963V61.6211C16.1421 62.7258 17.0375 63.6212 18.1416 63.6212H45.1283C46.2324 63.6212 47.1278 62.7258 47.1278 61.6211C47.1278 60.5359 47.1278 44.6936 47.1278 29.9963H16.1421Z" fill="#E6F7FE"/>
<path d="M16.1421 29.9963V61.6211C16.1421 62.7258 17.0375 63.6212 18.1416 63.6212H22.8718V29.9963H16.1421Z" fill="#D5F1FE"/>
<path d="M27.012 39.536C27.012 41.2664 25.6094 42.6689 23.879 42.6689C22.1487 42.6689 20.7461 41.2664 20.7461 39.536C20.7461 37.8057 22.1487 36.4025 23.879 36.4025C25.6094 36.4025 27.012 37.8057 27.012 39.536Z" fill="#3D4EC6"/>
<path d="M27.012 51.1534C27.012 52.8838 25.6094 54.287 23.879 54.287C22.1487 54.287 20.7461 52.8838 20.7461 51.1534C20.7461 49.4231 22.1487 48.0205 23.879 48.0205C25.6094 48.0205 27.012 49.4231 27.012 51.1534Z" fill="#3D4EC6"/>
<path d="M23.525 36.4238C21.9613 36.6002 20.7461 37.9253 20.7461 39.536C20.7461 41.2664 22.1487 42.6689 23.879 42.6689C24.9581 42.6689 25.9091 42.1233 26.4724 41.2932C23.771 41.5978 22.051 38.5948 23.525 36.4238Z" fill="#01529A"/>
<path d="M23.525 48.0419C21.9613 48.2177 20.7461 49.5433 20.7461 51.1534C20.7461 52.8844 22.1487 54.287 23.879 54.287C24.9581 54.287 25.9091 53.7413 26.4724 52.9113C23.7875 53.2134 22.0413 50.2269 23.525 48.0419Z" fill="#01529A"/>
<path d="M36.6821 38.2335H32.2339C31.5869 38.2335 31.062 37.7086 31.062 37.0616C31.062 36.4141 31.5869 35.8898 32.2339 35.8898H36.6821C37.3291 35.8898 37.854 36.4141 37.854 37.0616C37.854 37.7086 37.3291 38.2335 36.6821 38.2335Z" fill="#11DFEF"/>
<path d="M41.1304 43.1823H32.2339C31.5863 43.1823 31.062 42.6573 31.062 42.0104C31.062 41.3628 31.5863 40.8385 32.2339 40.8385H41.1304C41.7773 40.8385 42.3022 41.3628 42.3022 42.0104C42.3022 42.6573 41.7773 43.1823 41.1304 43.1823Z" fill="#11DFEF"/>
<path d="M36.6821 49.851H32.2339C31.5869 49.851 31.062 49.3267 31.062 48.6791C31.062 48.0315 31.5869 47.5072 32.2339 47.5072H36.6821C37.3291 47.5072 37.854 48.0315 37.854 48.6791C37.854 49.3267 37.3291 49.851 36.6821 49.851Z" fill="#11DFEF"/>
<path d="M41.1304 54.7997H32.2339C31.5863 54.7997 31.062 54.2754 31.062 53.6278C31.062 52.9808 31.5863 52.4559 32.2339 52.4559H41.1304C41.7773 52.4559 42.3022 52.9808 42.3022 53.6278C42.3022 54.2754 41.7773 54.7997 41.1304 54.7997Z" fill="#11DFEF"/>
<path d="M45.1122 2.74963H41.1016C40.7231 2.74963 40.4167 3.05603 40.4167 3.43384C40.4167 4.34143 39.6746 5.08362 38.7676 5.08362H24.4713C23.5637 5.08362 22.8215 4.34143 22.8215 3.43384C22.8215 3.05603 22.5151 2.74963 22.1367 2.74963H18.1261C17.0214 2.74963 16.126 3.64502 16.126 4.74915V30.3088H47.1123V4.74915C47.1123 3.64502 46.2169 2.74963 45.1122 2.74963Z" fill="#F948B4"/>
<path d="M22.8716 3.82935C22.8398 3.70239 22.8215 3.57056 22.8215 3.43445C22.8215 3.05603 22.5151 2.74963 22.1367 2.74963H18.1261C17.0214 2.74963 16.126 3.64502 16.126 4.74915V30.3088H22.8716V3.82935Z" fill="#E00E8B"/>
<path d="M45.1125 2.74963H41.1019C40.7235 2.74963 40.4171 3.05603 40.4171 3.43384C40.4171 4.34143 39.6749 5.08362 38.7679 5.08362H30.8828L47.1127 25.4279V4.74915C47.1127 3.64502 46.2173 2.74963 45.1125 2.74963Z" fill="#FC7ACD"/>
<path d="M26.5808 12.0636H21.1768C20.5298 12.0636 20.0049 11.5393 20.0049 10.8917C20.0049 10.2441 20.5298 9.71985 21.1768 9.71985H26.5808C27.2278 9.71985 27.7527 10.2441 27.7527 10.8917C27.7527 11.5387 27.2278 12.0636 26.5808 12.0636Z" fill="#FC7ACD"/>
<path d="M18.909 37.6861C17.7012 38.9892 15.665 39.0674 14.3613 37.8595L8.9713 32.865C7.66759 31.6571 7.59007 29.621 8.79796 28.3172C10.0058 27.0135 12.042 26.936 13.3457 28.1439L18.7357 33.1384C20.0388 34.3463 20.1169 36.3824 18.909 37.6861Z" fill="#F9CFA9"/>
<path d="M18.7352 33.1384L16.1711 30.7629C16.5087 31.9855 16.2285 33.3478 15.3038 34.3457C14.3785 35.3442 13.0413 35.7269 11.7974 35.484L14.3608 37.8595C15.6646 39.0674 17.7001 38.9893 18.9086 37.6862C20.1165 36.3824 20.0383 34.3463 18.7352 33.1384Z" fill="#FBBC8D"/>
<path d="M18.909 46.463C17.7012 47.7667 15.665 47.8442 14.3613 46.6363L8.9713 41.6418C7.66759 40.4339 7.59007 38.3978 8.79796 37.0947C10.0058 35.791 12.042 35.7135 13.3457 36.9214L18.7357 41.9159C20.0388 43.1238 20.1169 45.1593 18.909 46.463Z" fill="#F9CFA9"/>
<path d="M18.909 55.2403C17.7012 56.5441 15.665 56.6216 14.3613 55.4137L8.9713 50.4192C7.66759 49.2113 7.59007 47.1752 8.79796 45.8714C10.0058 44.5677 12.042 44.4902 13.3457 45.6981L18.7357 50.6926C20.0388 51.9005 20.1169 53.9366 18.909 55.2403Z" fill="#F9CFA9"/>
<path d="M60.6936 62.6885C60.527 62.0745 60.4141 61.4489 60.3549 60.8177C54.3917 70.6078 42.8146 75.1543 31.9399 72.3271C33.1527 73.1066 34.4375 73.7816 35.7815 74.3401C35.8077 74.3511 35.834 74.3621 35.8602 74.373C38.395 75.4436 40.3304 77.4633 41.3497 79.9126C49.5583 79.3688 57.0602 76.2389 63.0453 71.328L60.6936 62.6885Z" fill="#FBBC8D"/>
<path d="M18.7352 41.9158L16.1711 39.5403C16.5087 40.7622 16.2285 42.1245 15.3038 43.123C14.3785 44.1216 13.0413 44.5043 11.7974 44.2614L14.3608 46.6362C15.6646 47.8441 17.7007 47.7666 18.9086 46.4629C20.1165 45.1592 20.0383 43.1237 18.7352 41.9158Z" fill="#FBBC8D"/>
<path d="M18.7352 50.6926L16.1711 48.3171C16.5087 49.5397 16.2285 50.902 15.3038 51.8999C14.3785 52.8984 13.0413 53.2817 11.7974 53.0382L14.3608 55.4137C15.6646 56.6216 17.7007 56.5441 18.9086 55.2404C20.1165 53.9366 20.0383 51.9005 18.7352 50.6926Z" fill="#FBBC8D"/>
</svg>
