<svg width="26" height="26" viewBox="0 0 26 26" fill="none" xmlns="http://www.w3.org/2000/svg">
<path d="M13.1733 11.7757C13.0649 11.7648 12.9349 11.7648 12.8158 11.7757C10.2374 11.689 8.18994 9.5765 8.18994 6.9765C8.18994 4.32234 10.3349 2.1665 12.9999 2.1665C15.6541 2.1665 17.8099 4.32234 17.8099 6.9765C17.7991 9.5765 15.7516 11.689 13.1733 11.7757Z" stroke="#505050" stroke-width="1.5" stroke-linecap="round" stroke-linejoin="round"/>
<path d="M7.75678 15.7735C5.13511 17.5285 5.13511 20.3885 7.75678 22.1327C10.7359 24.126 15.6218 24.126 18.6009 22.1327C21.2226 20.3777 21.2226 17.5177 18.6009 15.7735C15.6326 13.791 10.7468 13.791 7.75678 15.7735Z" stroke="#505050" stroke-width="1.5" stroke-linecap="round" stroke-linejoin="round"/>
</svg>
