<svg width="19" height="20" viewBox="0 0 19 20" fill="none" xmlns="http://www.w3.org/2000/svg">
<path d="M10.9421 2.92495L12.4087 5.85828C12.6087 6.26662 13.1421 6.65828 13.5921 6.73328L16.2504 7.17495C17.9504 7.45828 18.3504 8.69162 17.1254 9.90828L15.0587 11.975C14.7087 12.325 14.5171 13 14.6254 13.4833L15.2171 16.0416C15.6837 18.0666 14.6087 18.85 12.8171 17.7916L10.3254 16.3166C9.87541 16.05 9.13375 16.05 8.67541 16.3166L6.18375 17.7916C4.40041 18.85 3.31708 18.0583 3.78375 16.0416L4.37541 13.4833C4.48375 13 4.29208 12.325 3.94208 11.975L1.87541 9.90828C0.658746 8.69162 1.05041 7.45828 2.75041 7.17495L5.40875 6.73328C5.85041 6.65828 6.38375 6.26662 6.58375 5.85828L8.05041 2.92495C8.85041 1.33328 10.1504 1.33328 10.9421 2.92495Z" stroke="#999999" stroke-width="1.5" stroke-linecap="round" stroke-linejoin="round"/>
</svg>
