<svg width="27" height="27" viewBox="0 0 27 27" fill="none" xmlns="http://www.w3.org/2000/svg">
<g clip-path="url(#clip0_256_23317)">
<path d="M24.7715 13.8369C24.6669 13.6228 24.6669 13.3773 24.7715 13.1633L25.7412 11.1796C26.2811 10.0751 25.8533 8.75856 24.7673 8.18234L22.8168 7.14743C22.6064 7.03581 22.4621 6.83716 22.4209 6.6026L22.0395 4.4277C21.827 3.21678 20.7069 2.40306 19.4899 2.57526L17.3036 2.88452C17.0676 2.91783 16.8343 2.84196 16.6631 2.67637L15.0761 1.14115C14.1925 0.286307 12.8082 0.286257 11.9246 1.14115L10.3376 2.67652C10.1664 2.84217 9.93304 2.91788 9.69711 2.88467L7.51084 2.57541C6.29337 2.40311 5.17365 3.21693 4.96123 4.42785L4.57976 6.60265C4.53858 6.83726 4.39431 7.03586 4.18393 7.14753L2.23343 8.18245C1.14743 8.75861 0.719651 10.0752 1.25955 11.1797L2.22922 13.1635C2.33382 13.3775 2.33382 13.623 2.22922 13.837L1.2595 15.8207C0.7196 16.9252 1.14738 18.2417 2.23338 18.8179L4.18388 19.8528C4.39431 19.9644 4.53858 20.1631 4.57976 20.3977L4.96123 22.5726C5.1546 23.6749 6.09984 24.448 7.1862 24.4479C7.29319 24.4479 7.40176 24.4404 7.51089 24.4249L9.69716 24.1157C9.93294 24.0822 10.1664 24.1582 10.3377 24.3238L11.9246 25.8591C12.3665 26.2865 12.9333 26.5002 13.5003 26.5002C14.0672 26.5001 14.6344 26.2864 15.0761 25.8591L16.6631 24.3238C16.8343 24.1582 17.0677 24.0826 17.3036 24.1157L19.4899 24.4249C20.7075 24.5972 21.827 23.7834 22.0395 22.5725L22.421 20.3977C22.4622 20.1631 22.6064 19.9645 22.8168 19.8528L24.7673 18.8179C25.8533 18.2418 26.2811 16.9252 25.7412 15.8206L24.7715 13.8369ZM24.0645 17.4932L22.114 18.5281C21.4921 18.8581 21.0656 19.4451 20.944 20.1385L20.5625 22.3134C20.4906 22.7231 20.1119 22.9983 19.6999 22.9401L17.5136 22.6309C16.8164 22.5321 16.1265 22.7565 15.6205 23.246L14.0334 24.7811C13.7345 25.0703 13.2662 25.0703 12.9672 24.7811L11.3802 23.2459C10.9526 22.8322 10.3935 22.608 9.80979 22.608C9.70285 22.608 9.59504 22.6155 9.48708 22.6308L7.30081 22.9401C6.88918 22.9983 6.5101 22.723 6.43819 22.3133L6.05668 20.1384C5.935 19.445 5.50855 18.858 4.88663 18.5281L2.93614 17.4931C2.56869 17.2982 2.42396 16.8528 2.60662 16.4791L3.57633 14.4953C3.88549 13.8628 3.88549 13.1373 3.57633 12.5048L2.60662 10.5211C2.42396 10.1474 2.56869 9.70197 2.93614 9.50702L4.88663 8.4721C5.5085 8.14208 5.935 7.55515 6.05662 6.86168L6.43809 4.68684C6.51 4.27713 6.88872 4.0019 7.30071 4.0601L9.48698 4.36935C10.1839 4.46802 10.8741 4.24372 11.3801 3.75424L12.9671 2.21903C13.266 1.92988 13.7344 1.92988 14.0334 2.21903L15.6203 3.75424C16.1264 4.24377 16.8164 4.46802 17.5135 4.36935L19.6998 4.0601C20.1115 4.00185 20.4905 4.27713 20.5624 4.68684L20.9439 6.86173C21.0655 7.5552 21.492 8.14218 22.1139 8.4721L24.0644 9.50702C24.4319 9.70197 24.5766 10.1474 24.3939 10.5211L23.4242 12.5048C23.1151 13.1372 23.1151 13.8628 23.4242 14.4953L24.3939 16.479C24.5766 16.8528 24.4319 17.2982 24.0645 17.4932Z" fill="#212121"/>
<path d="M18.9784 8.0216C18.6856 7.7288 18.2108 7.7288 17.918 8.0216L8.02136 17.9183C7.72856 18.2111 7.72856 18.6858 8.02136 18.9786C8.16776 19.125 8.35966 19.1983 8.55151 19.1983C8.74336 19.1983 8.93532 19.1251 9.08167 18.9786L18.9783 9.08201C19.2712 8.78916 19.2712 8.31446 18.9784 8.0216Z" fill="#212121"/>
<path d="M10.5012 6.75195C8.98528 6.75195 7.75195 7.98528 7.75195 9.5012C7.75195 11.0171 8.98528 12.2504 10.5012 12.2504C12.0171 12.2504 13.2504 11.0171 13.2504 9.5012C13.2504 7.98528 12.0171 6.75195 10.5012 6.75195ZM10.5012 10.7508C9.81215 10.7508 9.25157 10.1902 9.25157 9.50114C9.25157 8.81209 9.81215 8.25152 10.5012 8.25152C11.1902 8.25152 11.7509 8.81209 11.7509 9.50114C11.7508 10.1902 11.1902 10.7508 10.5012 10.7508Z" fill="#212121"/>
<path d="M16.4992 14.7498C14.9833 14.7498 13.75 15.9831 13.75 17.499C13.75 19.0149 14.9833 20.2482 16.4992 20.2482C18.0152 20.2482 19.2485 19.0149 19.2485 17.499C19.2485 15.9831 18.0152 14.7498 16.4992 14.7498ZM16.4992 18.7486C15.8102 18.7486 15.2496 18.1881 15.2496 17.499C15.2496 16.81 15.8101 16.2494 16.4992 16.2494C17.1883 16.2494 17.7489 16.81 17.7489 17.499C17.7489 18.1881 17.1883 18.7486 16.4992 18.7486Z" fill="#212121"/>
</g>
<defs>
<clipPath id="clip0_256_23317">
<rect width="26" height="26" fill="white" transform="translate(0.5 0.5)"/>
</clipPath>
</defs>
</svg>
