<svg width="16" height="16" viewBox="0 0 16 16" fill="none" xmlns="http://www.w3.org/2000/svg">
<mask id="path-1-inside-1_1321_7638" fill="white">
<path d="M13.25 2H10.5V1.5C10.5 0.672906 9.82709 0 9 0H7C6.17291 0 5.5 0.672906 5.5 1.5V2H2.75C2.06075 2 1.5 2.56075 1.5 3.25V5C1.5 5.27612 1.72387 5.5 2 5.5H2.27325L2.70522 14.5713C2.74338 15.3725 3.4015 16 4.2035 16H11.7965C12.5985 16 13.2567 15.3725 13.2948 14.5713L13.7268 5.5H14C14.2761 5.5 14.5 5.27612 14.5 5V3.25C14.5 2.56075 13.9392 2 13.25 2ZM6.5 1.5C6.5 1.22431 6.72431 1 7 1H9C9.27569 1 9.5 1.22431 9.5 1.5V2H6.5V1.5ZM2.5 3.25C2.5 3.11216 2.61216 3 2.75 3H13.25C13.3878 3 13.5 3.11216 13.5 3.25V4.5C13.3459 4.5 3.13853 4.5 2.5 4.5V3.25ZM12.2959 14.5238C12.2832 14.7908 12.0638 15 11.7965 15H4.2035C3.93616 15 3.71678 14.7908 3.70409 14.5238L3.27437 5.5H12.7256L12.2959 14.5238Z"/>
</mask>
<path d="M13.25 2H10.5V1.5C10.5 0.672906 9.82709 0 9 0H7C6.17291 0 5.5 0.672906 5.5 1.5V2H2.75C2.06075 2 1.5 2.56075 1.5 3.25V5C1.5 5.27612 1.72387 5.5 2 5.5H2.27325L2.70522 14.5713C2.74338 15.3725 3.4015 16 4.2035 16H11.7965C12.5985 16 13.2567 15.3725 13.2948 14.5713L13.7268 5.5H14C14.2761 5.5 14.5 5.27612 14.5 5V3.25C14.5 2.56075 13.9392 2 13.25 2ZM6.5 1.5C6.5 1.22431 6.72431 1 7 1H9C9.27569 1 9.5 1.22431 9.5 1.5V2H6.5V1.5ZM2.5 3.25C2.5 3.11216 2.61216 3 2.75 3H13.25C13.3878 3 13.5 3.11216 13.5 3.25V4.5C13.3459 4.5 3.13853 4.5 2.5 4.5V3.25ZM12.2959 14.5238C12.2832 14.7908 12.0638 15 11.7965 15H4.2035C3.93616 15 3.71678 14.7908 3.70409 14.5238L3.27437 5.5H12.7256L12.2959 14.5238Z" fill="#DE2929"/>
<path d="M10.5 2H9.5V3H10.5V2ZM5.5 2V3H6.5V2H5.5ZM2.27325 5.5L3.27212 5.45244L3.22676 4.5H2.27325V5.5ZM2.70522 14.5713L1.70635 14.6189L1.70635 14.6189L2.70522 14.5713ZM13.2948 14.5713L12.2959 14.5238L12.2959 14.5238L13.2948 14.5713ZM13.7268 5.5V4.5H12.7732L12.7279 5.45244L13.7268 5.5ZM9.5 2V3H10.5V2H9.5ZM6.5 2H5.5V3H6.5V2ZM13.5 4.5V5.5H14.5V4.5H13.5ZM2.5 4.5H1.5V5.5H2.5V4.5ZM12.2959 14.5238L13.2948 14.5714V14.5713L12.2959 14.5238ZM3.70409 14.5238L4.70297 14.4763L4.70296 14.4762L3.70409 14.5238ZM3.27437 5.5V4.5H2.22562L2.27551 5.54757L3.27437 5.5ZM12.7256 5.5L13.7245 5.54757L13.7744 4.5H12.7256V5.5ZM13.25 1H10.5V3H13.25V1ZM11.5 2V1.5H9.5V2H11.5ZM11.5 1.5C11.5 0.120622 10.3794 -1 9 -1V1C9.27481 1 9.5 1.22519 9.5 1.5H11.5ZM9 -1H7V1H9V-1ZM7 -1C5.62062 -1 4.5 0.120622 4.5 1.5H6.5C6.5 1.22519 6.72519 1 7 1V-1ZM4.5 1.5V2H6.5V1.5H4.5ZM5.5 1H2.75V3H5.5V1ZM2.75 1C1.50847 1 0.5 2.00847 0.5 3.25H2.5C2.5 3.11303 2.61303 3 2.75 3V1ZM0.5 3.25V5H2.5V3.25H0.5ZM0.5 5C0.5 5.82841 1.17159 6.5 2 6.5V4.5C2.27616 4.5 2.5 4.72384 2.5 5H0.5ZM2 6.5H2.27325V4.5H2V6.5ZM1.27438 5.54756L1.70635 14.6189L3.70409 14.5238L3.27212 5.45244L1.27438 5.54756ZM1.70635 14.6189C1.7699 15.9532 2.86769 17 4.2035 17V15C3.93531 15 3.71685 14.7917 3.70409 14.5238L1.70635 14.6189ZM4.2035 17H11.7965V15H4.2035V17ZM11.7965 17C13.1323 17 14.2302 15.9532 14.2937 14.6189L12.2959 14.5238C12.2832 14.7917 12.0647 15 11.7965 15V17ZM14.2936 14.6189L14.7256 5.54756L12.7279 5.45244L12.2959 14.5238L14.2936 14.6189ZM13.7268 6.5H14V4.5H13.7268V6.5ZM14 6.5C14.8284 6.5 15.5 5.82841 15.5 5H13.5C13.5 4.72384 13.7238 4.5 14 4.5V6.5ZM15.5 5V3.25H13.5V5H15.5ZM15.5 3.25C15.5 2.00847 14.4915 1 13.25 1V3C13.387 3 13.5 3.11303 13.5 3.25H15.5ZM7.5 1.5C7.5 1.7766 7.2766 2 7 2V0C6.17203 0 5.5 0.672028 5.5 1.5H7.5ZM7 2H9V0H7V2ZM9 2C8.7234 2 8.5 1.7766 8.5 1.5H10.5C10.5 0.672028 9.82797 0 9 0V2ZM8.5 1.5V2H10.5V1.5H8.5ZM9.5 1H6.5V3H9.5V1ZM7.5 2V1.5H5.5V2H7.5ZM3.5 3.25C3.5 3.66444 3.16444 4 2.75 4V2C2.05987 2 1.5 2.55987 1.5 3.25H3.5ZM2.75 4H13.25V2H2.75V4ZM13.25 4C12.8356 4 12.5 3.66444 12.5 3.25H14.5C14.5 2.55987 13.9401 2 13.25 2V4ZM12.5 3.25V4.5H14.5V3.25H12.5ZM13.5 3.5C13.4997 3.5 13.4994 3.5 13.499 3.5C13.4986 3.5 13.4982 3.5 13.4977 3.5C13.4973 3.5 13.4968 3.5 13.4963 3.5C13.4957 3.5 13.4952 3.5 13.4946 3.5C13.494 3.5 13.4933 3.5 13.4926 3.5C13.4919 3.5 13.4912 3.5 13.4905 3.5C13.4897 3.5 13.4889 3.5 13.4881 3.5C13.4873 3.5 13.4864 3.5 13.4855 3.5C13.4846 3.5 13.4836 3.5 13.4827 3.5C13.4817 3.5 13.4807 3.5 13.4796 3.5C13.4786 3.5 13.4775 3.5 13.4763 3.5C13.4752 3.5 13.4741 3.5 13.4729 3.5C13.4717 3.5 13.4704 3.5 13.4691 3.5C13.4679 3.5 13.4666 3.5 13.4652 3.5C13.4639 3.5 13.4625 3.5 13.4611 3.5C13.4596 3.5 13.4582 3.5 13.4567 3.5C13.4552 3.5 13.4537 3.5 13.4521 3.5C13.4506 3.5 13.449 3.5 13.4473 3.5C13.4457 3.5 13.444 3.5 13.4423 3.5C13.4406 3.5 13.4389 3.5 13.4371 3.5C13.4353 3.5 13.4335 3.5 13.4317 3.5C13.4298 3.5 13.4279 3.5 13.426 3.5C13.4241 3.5 13.4221 3.5 13.4202 3.5C13.4182 3.5 13.4161 3.5 13.4141 3.5C13.412 3.5 13.4099 3.5 13.4078 3.5C13.4057 3.5 13.4035 3.5 13.4013 3.5C13.3991 3.5 13.3969 3.5 13.3946 3.5C13.3924 3.5 13.3901 3.5 13.3877 3.5C13.3854 3.5 13.383 3.5 13.3806 3.5C13.3782 3.5 13.3758 3.5 13.3733 3.5C13.3708 3.5 13.3683 3.5 13.3658 3.5C13.3633 3.5 13.3607 3.5 13.3581 3.5C13.3555 3.5 13.3528 3.5 13.3502 3.5C13.3475 3.5 13.3448 3.5 13.342 3.5C13.3393 3.5 13.3365 3.5 13.3337 3.5C13.3309 3.5 13.3281 3.5 13.3252 3.5C13.3223 3.5 13.3194 3.5 13.3165 3.5C13.3136 3.5 13.3106 3.5 13.3076 3.5C13.3046 3.5 13.3015 3.5 13.2985 3.5C13.2954 3.5 13.2923 3.5 13.2892 3.5C13.286 3.5 13.2829 3.5 13.2797 3.5C13.2765 3.5 13.2732 3.5 13.27 3.5C13.2667 3.5 13.2634 3.5 13.2601 3.5C13.2567 3.5 13.2534 3.5 13.25 3.5C13.2466 3.5 13.2432 3.5 13.2397 3.5C13.2363 3.5 13.2328 3.5 13.2292 3.5C13.2257 3.5 13.2222 3.5 13.2186 3.5C13.215 3.5 13.2114 3.5 13.2078 3.5C13.2041 3.5 13.2004 3.5 13.1967 3.5C13.193 3.5 13.1893 3.5 13.1855 3.5C13.1817 3.5 13.1779 3.5 13.1741 3.5C13.1703 3.5 13.1664 3.5 13.1625 3.5C13.1586 3.5 13.1547 3.5 13.1507 3.5C13.1468 3.5 13.1428 3.5 13.1388 3.5C13.1348 3.5 13.1307 3.5 13.1266 3.5C13.1226 3.5 13.1185 3.5 13.1143 3.5C13.1102 3.5 13.106 3.5 13.1018 3.5C13.0976 3.5 13.0934 3.5 13.0891 3.5C13.0849 3.5 13.0806 3.5 13.0763 3.5C13.0719 3.5 13.0676 3.5 13.0632 3.5C13.0588 3.5 13.0544 3.5 13.05 3.5C13.0456 3.5 13.0411 3.5 13.0366 3.5C13.0321 3.5 13.0276 3.5 13.023 3.5C13.0185 3.5 13.0139 3.5 13.0093 3.5C13.0047 3.5 13 3.5 12.9954 3.5C12.9907 3.5 12.986 3.5 12.9813 3.5C12.9766 3.5 12.9718 3.5 12.967 3.5C12.9622 3.5 12.9574 3.5 12.9526 3.5C12.9477 3.5 12.9429 3.5 12.938 3.5C12.9331 3.5 12.9281 3.5 12.9232 3.5C12.9182 3.5 12.9133 3.5 12.9082 3.5C12.9032 3.5 12.8982 3.5 12.8931 3.5C12.8881 3.5 12.883 3.5 12.8779 3.5C12.8727 3.5 12.8676 3.5 12.8624 3.5C12.8572 3.5 12.852 3.5 12.8468 3.5C12.8416 3.5 12.8363 3.5 12.831 3.5C12.8257 3.5 12.8204 3.5 12.8151 3.5C12.8097 3.5 12.8044 3.5 12.799 3.5C12.7936 3.5 12.7882 3.5 12.7827 3.5C12.7773 3.5 12.7718 3.5 12.7663 3.5C12.7608 3.5 12.7553 3.5 12.7497 3.5C12.7442 3.5 12.7386 3.5 12.733 3.5C12.7274 3.5 12.7217 3.5 12.7161 3.5C12.7104 3.5 12.7047 3.5 12.699 3.5C12.6933 3.5 12.6876 3.5 12.6818 3.5C12.676 3.5 12.6702 3.5 12.6644 3.5C12.6586 3.5 12.6528 3.5 12.6469 3.5C12.641 3.5 12.6351 3.5 12.6292 3.5C12.6233 3.5 12.6174 3.5 12.6114 3.5C12.6054 3.5 12.5994 3.5 12.5934 3.5C12.5874 3.5 12.5813 3.5 12.5753 3.5C12.5692 3.5 12.5631 3.5 12.557 3.5C12.5509 3.5 12.5447 3.5 12.5386 3.5C12.5324 3.5 12.5262 3.5 12.52 3.5C12.5137 3.5 12.5075 3.5 12.5012 3.5C12.495 3.5 12.4887 3.5 12.4824 3.5C12.476 3.5 12.4697 3.5 12.4633 3.5C12.457 3.5 12.4506 3.5 12.4442 3.5C12.4378 3.5 12.4313 3.5 12.4249 3.5C12.4184 3.5 12.4119 3.5 12.4054 3.5C12.3989 3.5 12.3924 3.5 12.3858 3.5C12.3792 3.5 12.3727 3.5 12.3661 3.5C12.3595 3.5 12.3528 3.5 12.3462 3.5C12.3395 3.5 12.3329 3.5 12.3262 3.5C12.3195 3.5 12.3127 3.5 12.306 3.5C12.2993 3.5 12.2925 3.5 12.2857 3.5C12.2789 3.5 12.2721 3.5 12.2653 3.5C12.2584 3.5 12.2516 3.5 12.2447 3.5C12.2378 3.5 12.2309 3.5 12.224 3.5C12.2171 3.5 12.2101 3.5 12.2032 3.5C12.1962 3.5 12.1892 3.5 12.1822 3.5C12.1752 3.5 12.1681 3.5 12.1611 3.5C12.154 3.5 12.1469 3.5 12.1398 3.5C12.1327 3.5 12.1256 3.5 12.1185 3.5C12.1113 3.5 12.1042 3.5 12.097 3.5C12.0898 3.5 12.0826 3.5 12.0753 3.5C12.0681 3.5 12.0609 3.5 12.0536 3.5C12.0463 3.5 12.039 3.5 12.0317 3.5C12.0244 3.5 12.017 3.5 12.0097 3.5C12.0023 3.5 11.995 3.5 11.9875 3.5C11.9802 3.5 11.9727 3.5 11.9653 3.5C11.9578 3.5 11.9504 3.5 11.9429 3.5C11.9354 3.5 11.9279 3.5 11.9204 3.5C11.9129 3.5 11.9053 3.5 11.8978 3.5C11.8902 3.5 11.8826 3.5 11.875 3.5C11.8674 3.5 11.8598 3.5 11.8521 3.5C11.8445 3.5 11.8368 3.5 11.8291 3.5C11.8215 3.5 11.8138 3.5 11.806 3.5C11.7983 3.5 11.7906 3.5 11.7828 3.5C11.775 3.5 11.7673 3.5 11.7595 3.5C11.7517 3.5 11.7438 3.5 11.736 3.5C11.7282 3.5 11.7203 3.5 11.7124 3.5C11.7045 3.5 11.6966 3.5 11.6887 3.5C11.6808 3.5 11.6729 3.5 11.6649 3.5C11.657 3.5 11.649 3.5 11.641 3.5C11.633 3.5 11.625 3.5 11.617 3.5C11.609 3.5 11.6009 3.5 11.5928 3.5C11.5848 3.5 11.5767 3.5 11.5686 3.5C11.5605 3.5 11.5524 3.5 11.5442 3.5C11.5361 3.5 11.5279 3.5 11.5198 3.5C11.5116 3.5 11.5034 3.5 11.4952 3.5C11.487 3.5 11.4788 3.5 11.4705 3.5C11.4623 3.5 11.454 3.5 11.4457 3.5C11.4374 3.5 11.4291 3.5 11.4208 3.5C11.4125 3.5 11.4042 3.5 11.3958 3.5C11.3875 3.5 11.3791 3.5 11.3707 3.5C11.3624 3.5 11.354 3.5 11.3455 3.5C11.3371 3.5 11.3287 3.5 11.3202 3.5C11.3118 3.5 11.3033 3.5 11.2948 3.5C11.2864 3.5 11.2779 3.5 11.2693 3.5C11.2608 3.5 11.2523 3.5 11.2437 3.5C11.2352 3.5 11.2266 3.5 11.218 3.5C11.2095 3.5 11.2009 3.5 11.1922 3.5C11.1836 3.5 11.175 3.5 11.1664 3.5C11.1577 3.5 11.1491 3.5 11.1404 3.5C11.1317 3.5 11.123 3.5 11.1143 3.5C11.1056 3.5 11.0969 3.5 11.0881 3.5C11.0794 3.5 11.0706 3.5 11.0619 3.5C11.0531 3.5 11.0443 3.5 11.0355 3.5C11.0267 3.5 11.0179 3.5 11.0091 3.5C11.0002 3.5 10.9914 3.5 10.9825 3.5C10.9737 3.5 10.9648 3.5 10.9559 3.5C10.947 3.5 10.9381 3.5 10.9292 3.5C10.9203 3.5 10.9113 3.5 10.9024 3.5C10.8934 3.5 10.8845 3.5 10.8755 3.5C10.8665 3.5 10.8575 3.5 10.8485 3.5C10.8395 3.5 10.8305 3.5 10.8215 3.5C10.8124 3.5 10.8034 3.5 10.7943 3.5C10.7853 3.5 10.7762 3.5 10.7671 3.5C10.758 3.5 10.7489 3.5 10.7398 3.5C10.7307 3.5 10.7216 3.5 10.7124 3.5C10.7033 3.5 10.6941 3.5 10.685 3.5C10.6758 3.5 10.6666 3.5 10.6574 3.5C10.6482 3.5 10.639 3.5 10.6298 3.5C10.6206 3.5 10.6113 3.5 10.6021 3.5C10.5928 3.5 10.5836 3.5 10.5743 3.5C10.565 3.5 10.5558 3.5 10.5465 3.5C10.5372 3.5 10.5279 3.5 10.5185 3.5C10.5092 3.5 10.4999 3.5 10.4905 3.5C10.4812 3.5 10.4718 3.5 10.4625 3.5C10.4531 3.5 10.4437 3.5 10.4343 3.5C10.4249 3.5 10.4155 3.5 10.4061 3.5C10.3967 3.5 10.3872 3.5 10.3778 3.5C10.3684 3.5 10.3589 3.5 10.3494 3.5C10.34 3.5 10.3305 3.5 10.321 3.5C10.3115 3.5 10.302 3.5 10.2925 3.5C10.283 3.5 10.2735 3.5 10.264 3.5C10.2544 3.5 10.2449 3.5 10.2353 3.5C10.2258 3.5 10.2162 3.5 10.2066 3.5C10.1971 3.5 10.1875 3.5 10.1779 3.5C10.1683 3.5 10.1587 3.5 10.1491 3.5C10.1394 3.5 10.1298 3.5 10.1202 3.5C10.1105 3.5 10.1009 3.5 10.0912 3.5C10.0816 3.5 10.0719 3.5 10.0622 3.5C10.0525 3.5 10.0429 3.5 10.0332 3.5C10.0235 3.5 10.0138 3.5 10.004 3.5C9.99432 3.5 9.98459 3.5 9.97485 3.5C9.96512 3.5 9.95537 3.5 9.94561 3.5C9.93586 3.5 9.92609 3.5 9.91632 3.5C9.90654 3.5 9.89676 3.5 9.88696 3.5C9.87717 3.5 9.86737 3.5 9.85756 3.5C9.84775 3.5 9.83793 3.5 9.8281 3.5C9.81827 3.5 9.80843 3.5 9.79858 3.5C9.78874 3.5 9.77888 3.5 9.76902 3.5C9.75915 3.5 9.74928 3.5 9.7394 3.5C9.72952 3.5 9.71963 3.5 9.70973 3.5C9.69984 3.5 9.68993 3.5 9.68002 3.5C9.6701 3.5 9.66018 3.5 9.65025 3.5C9.64032 3.5 9.63039 3.5 9.62044 3.5C9.61049 3.5 9.60054 3.5 9.59058 3.5C9.58062 3.5 9.57065 3.5 9.56068 3.5C9.5507 3.5 9.54072 3.5 9.53073 3.5C9.52073 3.5 9.51074 3.5 9.50073 3.5C9.49073 3.5 9.48071 3.5 9.47069 3.5C9.46067 3.5 9.45065 3.5 9.44061 3.5C9.43058 3.5 9.42054 3.5 9.41049 3.5C9.40044 3.5 9.39039 3.5 9.38033 3.5C9.37027 3.5 9.3602 3.5 9.35013 3.5C9.34005 3.5 9.32997 3.5 9.31989 3.5C9.3098 3.5 9.29971 3.5 9.28961 3.5C9.27951 3.5 9.2694 3.5 9.25929 3.5C9.24918 3.5 9.23906 3.5 9.22894 3.5C9.21882 3.5 9.20869 3.5 9.19855 3.5C9.18842 3.5 9.17828 3.5 9.16813 3.5C9.15798 3.5 9.14783 3.5 9.13768 3.5C9.12752 3.5 9.11735 3.5 9.10719 3.5C9.09702 3.5 9.08684 3.5 9.07667 3.5C9.06649 3.5 9.0563 3.5 9.04612 3.5C9.03593 3.5 9.02573 3.5 9.01553 3.5C9.00534 3.5 8.99513 3.5 8.98492 3.5C8.97472 3.5 8.9645 3.5 8.95428 3.5C8.94407 3.5 8.93384 3.5 8.92362 3.5C8.91339 3.5 8.90316 3.5 8.89293 3.5C8.88269 3.5 8.87245 3.5 8.86221 3.5C8.85196 3.5 8.84171 3.5 8.83146 3.5C8.82121 3.5 8.81096 3.5 8.8007 3.5C8.79044 3.5 8.78017 3.5 8.76991 3.5C8.75964 3.5 8.74937 3.5 8.73909 3.5C8.72882 3.5 8.71854 3.5 8.70826 3.5C8.69798 3.5 8.68769 3.5 8.6774 3.5C8.66712 3.5 8.65682 3.5 8.64653 3.5C8.63623 3.5 8.62594 3.5 8.61564 3.5C8.60534 3.5 8.59503 3.5 8.58473 3.5C8.57442 3.5 8.56411 3.5 8.5538 3.5C8.54349 3.5 8.53317 3.5 8.52285 3.5C8.51254 3.5 8.50222 3.5 8.4919 3.5C8.48157 3.5 8.47125 3.5 8.46092 3.5C8.4506 3.5 8.44027 3.5 8.42994 3.5C8.4196 3.5 8.40927 3.5 8.39894 3.5C8.3886 3.5 8.37826 3.5 8.36793 3.5C8.35759 3.5 8.34725 3.5 8.3369 3.5C8.32656 3.5 8.31622 3.5 8.30587 3.5C8.29553 3.5 8.28518 3.5 8.27483 3.5C8.26448 3.5 8.25413 3.5 8.24378 3.5C8.23343 3.5 8.22308 3.5 8.21273 3.5C8.20237 3.5 8.19202 3.5 8.18166 3.5C8.17131 3.5 8.16095 3.5 8.1506 3.5C8.14024 3.5 8.12988 3.5 8.11952 3.5C8.10916 3.5 8.09881 3.5 8.08845 3.5C8.07809 3.5 8.06773 3.5 8.05737 3.5C8.04701 3.5 8.03665 3.5 8.02629 3.5C8.01592 3.5 8.00556 3.5 7.9952 3.5C7.98484 3.5 7.97448 3.5 7.96412 3.5C7.95376 3.5 7.9434 3.5 7.93304 3.5C7.92268 3.5 7.91232 3.5 7.90196 3.5C7.8916 3.5 7.88124 3.5 7.87088 3.5C7.86052 3.5 7.85016 3.5 7.8398 3.5C7.82944 3.5 7.81909 3.5 7.80873 3.5C7.79838 3.5 7.78802 3.5 7.77767 3.5C7.76731 3.5 7.75696 3.5 7.7466 3.5C7.73625 3.5 7.7259 3.5 7.71555 3.5C7.7052 3.5 7.69485 3.5 7.68451 3.5C7.67416 3.5 7.66381 3.5 7.65347 3.5C7.64312 3.5 7.63278 3.5 7.62244 3.5C7.6121 3.5 7.60176 3.5 7.59142 3.5C7.58108 3.5 7.57075 3.5 7.56042 3.5C7.55008 3.5 7.53975 3.5 7.52942 3.5C7.51909 3.5 7.50876 3.5 7.49844 3.5C7.48811 3.5 7.47779 3.5 7.46747 3.5C7.45715 3.5 7.44683 3.5 7.43652 3.5C7.4262 3.5 7.41589 3.5 7.40558 3.5C7.39527 3.5 7.38496 3.5 7.37466 3.5C7.36435 3.5 7.35405 3.5 7.34375 3.5C7.33345 3.5 7.32316 3.5 7.31287 3.5C7.30257 3.5 7.29228 3.5 7.282 3.5C7.27171 3.5 7.26143 3.5 7.25115 3.5C7.24087 3.5 7.2306 3.5 7.22033 3.5C7.21005 3.5 7.19979 3.5 7.18952 3.5C7.17926 3.5 7.16899 3.5 7.15874 3.5C7.14848 3.5 7.13823 3.5 7.12798 3.5C7.11773 3.5 7.10749 3.5 7.09724 3.5C7.087 3.5 7.07677 3.5 7.06653 3.5C7.0563 3.5 7.04607 3.5 7.03585 3.5C7.02563 3.5 7.01541 3.5 7.00519 3.5C6.99498 3.5 6.98477 3.5 6.97457 3.5C6.96436 3.5 6.95416 3.5 6.94397 3.5C6.93377 3.5 6.92358 3.5 6.9134 3.5C6.90321 3.5 6.89303 3.5 6.88285 3.5C6.87268 3.5 6.86251 3.5 6.85235 3.5C6.84218 3.5 6.83202 3.5 6.82187 3.5C6.81172 3.5 6.80157 3.5 6.79143 3.5C6.78128 3.5 6.77115 3.5 6.76102 3.5C6.75089 3.5 6.74076 3.5 6.73064 3.5C6.72052 3.5 6.71041 3.5 6.7003 3.5C6.6902 3.5 6.68009 3.5 6.67 3.5C6.6599 3.5 6.64982 3.5 6.63973 3.5C6.62965 3.5 6.61958 3.5 6.60951 3.5C6.59944 3.5 6.58938 3.5 6.57932 3.5C6.56926 3.5 6.55921 3.5 6.54917 3.5C6.53913 3.5 6.52909 3.5 6.51906 3.5C6.50904 3.5 6.49901 3.5 6.489 3.5C6.47899 3.5 6.46898 3.5 6.45898 3.5C6.44898 3.5 6.43898 3.5 6.429 3.5C6.41901 3.5 6.40904 3.5 6.39907 3.5C6.38909 3.5 6.37913 3.5 6.36918 3.5C6.35922 3.5 6.34927 3.5 6.33933 3.5C6.32939 3.5 6.31946 3.5 6.30954 3.5C6.29961 3.5 6.2897 3.5 6.27979 3.5C6.26988 3.5 6.25998 3.5 6.25009 3.5C6.2402 3.5 6.23032 3.5 6.22044 3.5C6.21057 3.5 6.2007 3.5 6.19084 3.5C6.18099 3.5 6.17114 3.5 6.1613 3.5C6.15146 3.5 6.14163 3.5 6.1318 3.5C6.12198 3.5 6.11217 3.5 6.10236 3.5C6.09256 3.5 6.08276 3.5 6.07297 3.5C6.06319 3.5 6.05341 3.5 6.04364 3.5C6.03387 3.5 6.02412 3.5 6.01437 3.5C6.00462 3.5 5.99488 3.5 5.98515 3.5C5.97542 3.5 5.9657 3.5 5.95598 3.5C5.94627 3.5 5.93657 3.5 5.92688 3.5C5.91719 3.5 5.90751 3.5 5.89784 3.5C5.88816 3.5 5.8785 3.5 5.86885 3.5C5.8592 3.5 5.84956 3.5 5.83993 3.5C5.8303 3.5 5.82068 3.5 5.81107 3.5C5.80146 3.5 5.79186 3.5 5.78227 3.5C5.77268 3.5 5.7631 3.5 5.75354 3.5C5.74397 3.5 5.73441 3.5 5.72487 3.5C5.71532 3.5 5.70579 3.5 5.69626 3.5C5.68674 3.5 5.67723 3.5 5.66773 3.5C5.65822 3.5 5.64873 3.5 5.63926 3.5C5.62978 3.5 5.62031 3.5 5.61085 3.5C5.6014 3.5 5.59195 3.5 5.58252 3.5C5.57309 3.5 5.56367 3.5 5.55426 3.5C5.54485 3.5 5.53545 3.5 5.52606 3.5C5.51668 3.5 5.5073 3.5 5.49794 3.5C5.48858 3.5 5.47923 3.5 5.46989 3.5C5.46056 3.5 5.45123 3.5 5.44192 3.5C5.43261 3.5 5.42331 3.5 5.41402 3.5C5.40473 3.5 5.39546 3.5 5.38619 3.5C5.37693 3.5 5.36768 3.5 5.35844 3.5C5.34921 3.5 5.33998 3.5 5.33077 3.5C5.32156 3.5 5.31236 3.5 5.30318 3.5C5.29399 3.5 5.28482 3.5 5.27566 3.5C5.2665 3.5 5.25735 3.5 5.24822 3.5C5.23909 3.5 5.22997 3.5 5.22087 3.5C5.21176 3.5 5.20267 3.5 5.19359 3.5C5.18451 3.5 5.17545 3.5 5.1664 3.5C5.15735 3.5 5.14831 3.5 5.13929 3.5C5.13027 3.5 5.12126 3.5 5.11226 3.5C5.10327 3.5 5.09429 3.5 5.08532 3.5C5.07636 3.5 5.0674 3.5 5.05847 3.5C5.04953 3.5 5.04061 3.5 5.0317 3.5C5.02279 3.5 5.0139 3.5 5.00502 3.5C4.99614 3.5 4.98727 3.5 4.97842 3.5C4.96957 3.5 4.96074 3.5 4.95192 3.5C4.9431 3.5 4.9343 3.5 4.92551 3.5C4.91672 3.5 4.90794 3.5 4.89918 3.5C4.89042 3.5 4.88168 3.5 4.87295 3.5C4.86422 3.5 4.85551 3.5 4.84681 3.5C4.83812 3.5 4.82944 3.5 4.82077 3.5C4.8121 3.5 4.80345 3.5 4.79482 3.5C4.78619 3.5 4.77757 3.5 4.76896 3.5C4.76036 3.5 4.75178 3.5 4.74321 3.5C4.73464 3.5 4.72608 3.5 4.71754 3.5C4.70901 3.5 4.70049 3.5 4.69198 3.5C4.68348 3.5 4.67499 3.5 4.66652 3.5C4.65804 3.5 4.64959 3.5 4.64115 3.5C4.63271 3.5 4.62429 3.5 4.61589 3.5C4.60748 3.5 4.59909 3.5 4.59072 3.5C4.58235 3.5 4.574 3.5 4.56566 3.5C4.55733 3.5 4.54901 3.5 4.54071 3.5C4.5324 3.5 4.52412 3.5 4.51585 3.5C4.50758 3.5 4.49934 3.5 4.4911 3.5C4.48287 3.5 4.47466 3.5 4.46646 3.5C4.45826 3.5 4.45009 3.5 4.44193 3.5C4.43376 3.5 4.42562 3.5 4.4175 3.5C4.40937 3.5 4.40127 3.5 4.39318 3.5C4.38509 3.5 4.37702 3.5 4.36897 3.5C4.36092 3.5 4.35288 3.5 4.34487 3.5C4.33685 3.5 4.32886 3.5 4.32088 3.5C4.3129 3.5 4.30494 3.5 4.297 3.5C4.28906 3.5 4.28114 3.5 4.27324 3.5C4.26533 3.5 4.25745 3.5 4.24959 3.5C4.24172 3.5 4.23388 3.5 4.22605 3.5C4.21823 3.5 4.21042 3.5 4.20263 3.5C4.19484 3.5 4.18708 3.5 4.17933 3.5C4.17158 3.5 4.16385 3.5 4.15614 3.5C4.14843 3.5 4.14074 3.5 4.13307 3.5C4.1254 3.5 4.11775 3.5 4.11012 3.5C4.10249 3.5 4.09488 3.5 4.08729 3.5C4.0797 3.5 4.07213 3.5 4.06458 3.5C4.05704 3.5 4.04951 3.5 4.042 3.5C4.03449 3.5 4.027 3.5 4.01953 3.5C4.01207 3.5 4.00462 3.5 3.99719 3.5C3.98977 3.5 3.98236 3.5 3.97498 3.5C3.96759 3.5 3.96023 3.5 3.95288 3.5C3.94554 3.5 3.93822 3.5 3.93092 3.5C3.92362 3.5 3.91634 3.5 3.90908 3.5C3.90182 3.5 3.89458 3.5 3.88737 3.5C3.88015 3.5 3.87296 3.5 3.86579 3.5C3.85861 3.5 3.85146 3.5 3.84433 3.5C3.8372 3.5 3.8301 3.5 3.82301 3.5C3.81592 3.5 3.80886 3.5 3.80182 3.5C3.79478 3.5 3.78776 3.5 3.78076 3.5C3.77376 3.5 3.76679 3.5 3.75983 3.5C3.75288 3.5 3.74595 3.5 3.73904 3.5C3.73213 3.5 3.72525 3.5 3.71839 3.5C3.71152 3.5 3.70468 3.5 3.69786 3.5C3.69105 3.5 3.68425 3.5 3.67748 3.5C3.67071 3.5 3.66396 3.5 3.65723 3.5C3.65051 3.5 3.6438 3.5 3.63712 3.5C3.63044 3.5 3.62379 3.5 3.61715 3.5C3.61052 3.5 3.60391 3.5 3.59732 3.5C3.59074 3.5 3.58417 3.5 3.57763 3.5C3.57109 3.5 3.56458 3.5 3.55809 3.5C3.55159 3.5 3.54513 3.5 3.53868 3.5C3.53224 3.5 3.52582 3.5 3.51942 3.5C3.51303 3.5 3.50665 3.5 3.50031 3.5C3.49396 3.5 3.48763 3.5 3.48133 3.5C3.47504 3.5 3.46876 3.5 3.46251 3.5C3.45626 3.5 3.45003 3.5 3.44383 3.5C3.43763 3.5 3.43145 3.5 3.4253 3.5C3.41915 3.5 3.41302 3.5 3.40692 3.5C3.40082 3.5 3.39474 3.5 3.38869 3.5C3.38264 3.5 3.37661 3.5 3.37061 3.5C3.36461 3.5 3.35863 3.5 3.35268 3.5C3.34673 3.5 3.3408 3.5 3.3349 3.5C3.329 3.5 3.32313 3.5 3.31728 3.5C3.31143 3.5 3.30561 3.5 3.29981 3.5C3.29401 3.5 3.28824 3.5 3.2825 3.5C3.27675 3.5 3.27103 3.5 3.26534 3.5C3.25964 3.5 3.25398 3.5 3.24834 3.5C3.24269 3.5 3.23708 3.5 3.23149 3.5C3.2259 3.5 3.22034 3.5 3.21481 3.5C3.20927 3.5 3.20376 3.5 3.19828 3.5C3.1928 3.5 3.18734 3.5 3.18191 3.5C3.17648 3.5 3.17108 3.5 3.16571 3.5C3.16033 3.5 3.15498 3.5 3.14966 3.5C3.14434 3.5 3.13905 3.5 3.13378 3.5C3.12852 3.5 3.12328 3.5 3.11807 3.5C3.11286 3.5 3.10767 3.5 3.10252 3.5C3.09736 3.5 3.09223 3.5 3.08713 3.5C3.08203 3.5 3.07695 3.5 3.07191 3.5C3.06686 3.5 3.06185 3.5 3.05686 3.5C3.05187 3.5 3.04691 3.5 3.04197 3.5C3.03704 3.5 3.03213 3.5 3.02726 3.5C3.02238 3.5 3.01753 3.5 3.01271 3.5C3.00789 3.5 3.0031 3.5 2.99834 3.5C2.99357 3.5 2.98884 3.5 2.98413 3.5C2.97943 3.5 2.97475 3.5 2.9701 3.5C2.96545 3.5 2.96084 3.5 2.95625 3.5C2.95165 3.5 2.94709 3.5 2.94256 3.5C2.93803 3.5 2.93353 3.5 2.92905 3.5C2.92458 3.5 2.92014 3.5 2.91572 3.5C2.91131 3.5 2.90692 3.5 2.90257 3.5C2.89821 3.5 2.89389 3.5 2.88959 3.5C2.88529 3.5 2.88103 3.5 2.87679 3.5C2.87256 3.5 2.86835 3.5 2.86417 3.5C2.86 3.5 2.85585 3.5 2.85173 3.5C2.84762 3.5 2.84353 3.5 2.83948 3.5C2.83542 3.5 2.8314 3.5 2.8274 3.5C2.82341 3.5 2.81944 3.5 2.81551 3.5C2.81158 3.5 2.80767 3.5 2.8038 3.5C2.79993 3.5 2.79609 3.5 2.79228 3.5C2.78847 3.5 2.78469 3.5 2.78094 3.5C2.77719 3.5 2.77348 3.5 2.76979 3.5C2.7661 3.5 2.76245 3.5 2.75883 3.5C2.7552 3.5 2.75161 3.5 2.74805 3.5C2.74449 3.5 2.74096 3.5 2.73747 3.5C2.73397 3.5 2.7305 3.5 2.72707 3.5C2.72364 3.5 2.72023 3.5 2.71686 3.5C2.71349 3.5 2.71016 3.5 2.70685 3.5C2.70354 3.5 2.70027 3.5 2.69703 3.5C2.69379 3.5 2.69058 3.5 2.6874 3.5C2.68423 3.5 2.68108 3.5 2.67797 3.5C2.67486 3.5 2.67178 3.5 2.66873 3.5C2.66569 3.5 2.66267 3.5 2.65969 3.5C2.65671 3.5 2.65376 3.5 2.65085 3.5C2.64793 3.5 2.64505 3.5 2.6422 3.5C2.63935 3.5 2.63654 3.5 2.63376 3.5C2.63097 3.5 2.62822 3.5 2.62551 3.5C2.62279 3.5 2.62011 3.5 2.61746 3.5C2.61481 3.5 2.6122 3.5 2.60962 3.5C2.60703 3.5 2.60449 3.5 2.60197 3.5C2.59946 3.5 2.59698 3.5 2.59453 3.5C2.59209 3.5 2.58967 3.5 2.5873 3.5C2.58492 3.5 2.58258 3.5 2.58027 3.5C2.57796 3.5 2.57568 3.5 2.57344 3.5C2.5712 3.5 2.56899 3.5 2.56682 3.5C2.56465 3.5 2.56252 3.5 2.56041 3.5C2.55831 3.5 2.55624 3.5 2.55421 3.5C2.55218 3.5 2.55018 3.5 2.54822 3.5C2.54626 3.5 2.54433 3.5 2.54244 3.5C2.54054 3.5 2.53869 3.5 2.53686 3.5C2.53504 3.5 2.53326 3.5 2.53151 3.5C2.52975 3.5 2.52804 3.5 2.52636 3.5C2.52468 3.5 2.52303 3.5 2.52143 3.5C2.51982 3.5 2.51825 3.5 2.51671 3.5C2.51517 3.5 2.51367 3.5 2.51221 3.5C2.51074 3.5 2.50931 3.5 2.50792 3.5C2.50653 3.5 2.50517 3.5 2.50385 3.5C2.50253 3.5 2.50125 3.5 2.5 3.5V5.5C2.50125 5.5 2.50253 5.5 2.50385 5.5C2.50517 5.5 2.50653 5.5 2.50792 5.5C2.50931 5.5 2.51074 5.5 2.51221 5.5C2.51367 5.5 2.51517 5.5 2.51671 5.5C2.51825 5.5 2.51982 5.5 2.52143 5.5C2.52303 5.5 2.52468 5.5 2.52636 5.5C2.52804 5.5 2.52975 5.5 2.53151 5.5C2.53326 5.5 2.53504 5.5 2.53686 5.5C2.53869 5.5 2.54054 5.5 2.54244 5.5C2.54433 5.5 2.54626 5.5 2.54822 5.5C2.55018 5.5 2.55218 5.5 2.55421 5.5C2.55624 5.5 2.55831 5.5 2.56041 5.5C2.56252 5.5 2.56465 5.5 2.56682 5.5C2.56899 5.5 2.5712 5.5 2.57344 5.5C2.57568 5.5 2.57796 5.5 2.58027 5.5C2.58258 5.5 2.58492 5.5 2.5873 5.5C2.58967 5.5 2.59209 5.5 2.59453 5.5C2.59698 5.5 2.59946 5.5 2.60197 5.5C2.60449 5.5 2.60703 5.5 2.60962 5.5C2.6122 5.5 2.61481 5.5 2.61746 5.5C2.62011 5.5 2.62279 5.5 2.62551 5.5C2.62822 5.5 2.63097 5.5 2.63376 5.5C2.63654 5.5 2.63935 5.5 2.6422 5.5C2.64505 5.5 2.64793 5.5 2.65085 5.5C2.65376 5.5 2.65671 5.5 2.65969 5.5C2.66267 5.5 2.66569 5.5 2.66873 5.5C2.67178 5.5 2.67486 5.5 2.67797 5.5C2.68108 5.5 2.68423 5.5 2.6874 5.5C2.69058 5.5 2.69379 5.5 2.69703 5.5C2.70027 5.5 2.70354 5.5 2.70685 5.5C2.71016 5.5 2.71349 5.5 2.71686 5.5C2.72023 5.5 2.72364 5.5 2.72707 5.5C2.7305 5.5 2.73397 5.5 2.73747 5.5C2.74096 5.5 2.74449 5.5 2.74805 5.5C2.75161 5.5 2.7552 5.5 2.75883 5.5C2.76245 5.5 2.7661 5.5 2.76979 5.5C2.77348 5.5 2.77719 5.5 2.78094 5.5C2.78469 5.5 2.78847 5.5 2.79228 5.5C2.79609 5.5 2.79993 5.5 2.8038 5.5C2.80767 5.5 2.81158 5.5 2.81551 5.5C2.81944 5.5 2.82341 5.5 2.8274 5.5C2.8314 5.5 2.83542 5.5 2.83948 5.5C2.84353 5.5 2.84762 5.5 2.85173 5.5C2.85585 5.5 2.86 5.5 2.86417 5.5C2.86835 5.5 2.87256 5.5 2.87679 5.5C2.88103 5.5 2.88529 5.5 2.88959 5.5C2.89389 5.5 2.89821 5.5 2.90257 5.5C2.90692 5.5 2.91131 5.5 2.91572 5.5C2.92014 5.5 2.92458 5.5 2.92905 5.5C2.93353 5.5 2.93803 5.5 2.94256 5.5C2.94709 5.5 2.95165 5.5 2.95625 5.5C2.96084 5.5 2.96545 5.5 2.9701 5.5C2.97475 5.5 2.97943 5.5 2.98413 5.5C2.98884 5.5 2.99357 5.5 2.99834 5.5C3.0031 5.5 3.00789 5.5 3.01271 5.5C3.01753 5.5 3.02238 5.5 3.02726 5.5C3.03213 5.5 3.03704 5.5 3.04197 5.5C3.04691 5.5 3.05187 5.5 3.05686 5.5C3.06185 5.5 3.06686 5.5 3.07191 5.5C3.07695 5.5 3.08203 5.5 3.08713 5.5C3.09223 5.5 3.09736 5.5 3.10252 5.5C3.10767 5.5 3.11286 5.5 3.11807 5.5C3.12328 5.5 3.12852 5.5 3.13378 5.5C3.13905 5.5 3.14434 5.5 3.14966 5.5C3.15498 5.5 3.16033 5.5 3.16571 5.5C3.17108 5.5 3.17648 5.5 3.18191 5.5C3.18734 5.5 3.1928 5.5 3.19828 5.5C3.20376 5.5 3.20927 5.5 3.21481 5.5C3.22034 5.5 3.2259 5.5 3.23149 5.5C3.23708 5.5 3.24269 5.5 3.24834 5.5C3.25398 5.5 3.25964 5.5 3.26534 5.5C3.27103 5.5 3.27675 5.5 3.2825 5.5C3.28824 5.5 3.29401 5.5 3.29981 5.5C3.30561 5.5 3.31143 5.5 3.31728 5.5C3.32313 5.5 3.329 5.5 3.3349 5.5C3.3408 5.5 3.34673 5.5 3.35268 5.5C3.35863 5.5 3.36461 5.5 3.37061 5.5C3.37661 5.5 3.38264 5.5 3.38869 5.5C3.39474 5.5 3.40082 5.5 3.40692 5.5C3.41302 5.5 3.41915 5.5 3.4253 5.5C3.43145 5.5 3.43763 5.5 3.44383 5.5C3.45003 5.5 3.45626 5.5 3.46251 5.5C3.46876 5.5 3.47504 5.5 3.48133 5.5C3.48763 5.5 3.49396 5.5 3.50031 5.5C3.50665 5.5 3.51303 5.5 3.51942 5.5C3.52582 5.5 3.53224 5.5 3.53868 5.5C3.54513 5.5 3.55159 5.5 3.55809 5.5C3.56458 5.5 3.57109 5.5 3.57763 5.5C3.58417 5.5 3.59074 5.5 3.59732 5.5C3.60391 5.5 3.61052 5.5 3.61715 5.5C3.62379 5.5 3.63044 5.5 3.63712 5.5C3.6438 5.5 3.65051 5.5 3.65723 5.5C3.66396 5.5 3.67071 5.5 3.67748 5.5C3.68425 5.5 3.69105 5.5 3.69786 5.5C3.70468 5.5 3.71152 5.5 3.71839 5.5C3.72525 5.5 3.73213 5.5 3.73904 5.5C3.74595 5.5 3.75288 5.5 3.75983 5.5C3.76679 5.5 3.77376 5.5 3.78076 5.5C3.78776 5.5 3.79478 5.5 3.80182 5.5C3.80886 5.5 3.81592 5.5 3.82301 5.5C3.8301 5.5 3.8372 5.5 3.84433 5.5C3.85146 5.5 3.85861 5.5 3.86579 5.5C3.87296 5.5 3.88015 5.5 3.88737 5.5C3.89458 5.5 3.90182 5.5 3.90908 5.5C3.91634 5.5 3.92362 5.5 3.93092 5.5C3.93822 5.5 3.94554 5.5 3.95288 5.5C3.96023 5.5 3.96759 5.5 3.97498 5.5C3.98236 5.5 3.98977 5.5 3.99719 5.5C4.00462 5.5 4.01207 5.5 4.01953 5.5C4.027 5.5 4.03449 5.5 4.042 5.5C4.04951 5.5 4.05704 5.5 4.06458 5.5C4.07213 5.5 4.0797 5.5 4.08729 5.5C4.09488 5.5 4.10249 5.5 4.11012 5.5C4.11775 5.5 4.1254 5.5 4.13307 5.5C4.14074 5.5 4.14843 5.5 4.15614 5.5C4.16385 5.5 4.17158 5.5 4.17933 5.5C4.18708 5.5 4.19484 5.5 4.20263 5.5C4.21042 5.5 4.21823 5.5 4.22605 5.5C4.23388 5.5 4.24172 5.5 4.24959 5.5C4.25745 5.5 4.26533 5.5 4.27324 5.5C4.28114 5.5 4.28906 5.5 4.297 5.5C4.30494 5.5 4.3129 5.5 4.32088 5.5C4.32886 5.5 4.33685 5.5 4.34487 5.5C4.35288 5.5 4.36092 5.5 4.36897 5.5C4.37702 5.5 4.38509 5.5 4.39318 5.5C4.40127 5.5 4.40937 5.5 4.4175 5.5C4.42562 5.5 4.43376 5.5 4.44193 5.5C4.45009 5.5 4.45826 5.5 4.46646 5.5C4.47466 5.5 4.48287 5.5 4.4911 5.5C4.49934 5.5 4.50758 5.5 4.51585 5.5C4.52412 5.5 4.5324 5.5 4.54071 5.5C4.54901 5.5 4.55733 5.5 4.56566 5.5C4.574 5.5 4.58235 5.5 4.59072 5.5C4.59909 5.5 4.60748 5.5 4.61589 5.5C4.62429 5.5 4.63271 5.5 4.64115 5.5C4.64959 5.5 4.65804 5.5 4.66652 5.5C4.67499 5.5 4.68348 5.5 4.69198 5.5C4.70049 5.5 4.70901 5.5 4.71754 5.5C4.72608 5.5 4.73464 5.5 4.74321 5.5C4.75178 5.5 4.76036 5.5 4.76896 5.5C4.77757 5.5 4.78619 5.5 4.79482 5.5C4.80345 5.5 4.8121 5.5 4.82077 5.5C4.82944 5.5 4.83812 5.5 4.84681 5.5C4.85551 5.5 4.86422 5.5 4.87295 5.5C4.88168 5.5 4.89042 5.5 4.89918 5.5C4.90794 5.5 4.91672 5.5 4.92551 5.5C4.9343 5.5 4.9431 5.5 4.95192 5.5C4.96074 5.5 4.96957 5.5 4.97842 5.5C4.98727 5.5 4.99614 5.5 5.00502 5.5C5.0139 5.5 5.02279 5.5 5.0317 5.5C5.04061 5.5 5.04953 5.5 5.05847 5.5C5.0674 5.5 5.07636 5.5 5.08532 5.5C5.09429 5.5 5.10327 5.5 5.11226 5.5C5.12126 5.5 5.13027 5.5 5.13929 5.5C5.14831 5.5 5.15735 5.5 5.1664 5.5C5.17545 5.5 5.18451 5.5 5.19359 5.5C5.20267 5.5 5.21176 5.5 5.22087 5.5C5.22997 5.5 5.23909 5.5 5.24822 5.5C5.25735 5.5 5.2665 5.5 5.27566 5.5C5.28482 5.5 5.29399 5.5 5.30318 5.5C5.31236 5.5 5.32156 5.5 5.33077 5.5C5.33998 5.5 5.34921 5.5 5.35844 5.5C5.36768 5.5 5.37693 5.5 5.38619 5.5C5.39546 5.5 5.40473 5.5 5.41402 5.5C5.42331 5.5 5.43261 5.5 5.44192 5.5C5.45123 5.5 5.46056 5.5 5.46989 5.5C5.47923 5.5 5.48858 5.5 5.49794 5.5C5.5073 5.5 5.51668 5.5 5.52606 5.5C5.53545 5.5 5.54485 5.5 5.55426 5.5C5.56367 5.5 5.57309 5.5 5.58252 5.5C5.59195 5.5 5.6014 5.5 5.61085 5.5C5.62031 5.5 5.62978 5.5 5.63926 5.5C5.64873 5.5 5.65822 5.5 5.66773 5.5C5.67723 5.5 5.68674 5.5 5.69626 5.5C5.70579 5.5 5.71532 5.5 5.72487 5.5C5.73441 5.5 5.74397 5.5 5.75354 5.5C5.7631 5.5 5.77268 5.5 5.78227 5.5C5.79186 5.5 5.80146 5.5 5.81107 5.5C5.82068 5.5 5.8303 5.5 5.83993 5.5C5.84956 5.5 5.8592 5.5 5.86885 5.5C5.8785 5.5 5.88816 5.5 5.89784 5.5C5.90751 5.5 5.91719 5.5 5.92688 5.5C5.93657 5.5 5.94627 5.5 5.95598 5.5C5.9657 5.5 5.97542 5.5 5.98515 5.5C5.99488 5.5 6.00462 5.5 6.01437 5.5C6.02412 5.5 6.03387 5.5 6.04364 5.5C6.05341 5.5 6.06319 5.5 6.07297 5.5C6.08276 5.5 6.09256 5.5 6.10236 5.5C6.11217 5.5 6.12198 5.5 6.1318 5.5C6.14163 5.5 6.15146 5.5 6.1613 5.5C6.17114 5.5 6.18099 5.5 6.19084 5.5C6.2007 5.5 6.21057 5.5 6.22044 5.5C6.23032 5.5 6.2402 5.5 6.25009 5.5C6.25998 5.5 6.26988 5.5 6.27979 5.5C6.2897 5.5 6.29961 5.5 6.30954 5.5C6.31946 5.5 6.32939 5.5 6.33933 5.5C6.34927 5.5 6.35922 5.5 6.36918 5.5C6.37913 5.5 6.38909 5.5 6.39907 5.5C6.40904 5.5 6.41901 5.5 6.429 5.5C6.43898 5.5 6.44898 5.5 6.45898 5.5C6.46898 5.5 6.47899 5.5 6.489 5.5C6.49901 5.5 6.50904 5.5 6.51906 5.5C6.52909 5.5 6.53913 5.5 6.54917 5.5C6.55921 5.5 6.56926 5.5 6.57932 5.5C6.58938 5.5 6.59944 5.5 6.60951 5.5C6.61958 5.5 6.62965 5.5 6.63973 5.5C6.64982 5.5 6.6599 5.5 6.67 5.5C6.68009 5.5 6.6902 5.5 6.7003 5.5C6.71041 5.5 6.72052 5.5 6.73064 5.5C6.74076 5.5 6.75089 5.5 6.76102 5.5C6.77115 5.5 6.78128 5.5 6.79143 5.5C6.80157 5.5 6.81172 5.5 6.82187 5.5C6.83202 5.5 6.84218 5.5 6.85235 5.5C6.86251 5.5 6.87268 5.5 6.88285 5.5C6.89303 5.5 6.90321 5.5 6.9134 5.5C6.92358 5.5 6.93377 5.5 6.94397 5.5C6.95416 5.5 6.96436 5.5 6.97457 5.5C6.98477 5.5 6.99498 5.5 7.00519 5.5C7.01541 5.5 7.02563 5.5 7.03585 5.5C7.04607 5.5 7.0563 5.5 7.06653 5.5C7.07677 5.5 7.087 5.5 7.09724 5.5C7.10749 5.5 7.11773 5.5 7.12798 5.5C7.13823 5.5 7.14848 5.5 7.15874 5.5C7.16899 5.5 7.17926 5.5 7.18952 5.5C7.19979 5.5 7.21005 5.5 7.22033 5.5C7.2306 5.5 7.24087 5.5 7.25115 5.5C7.26143 5.5 7.27171 5.5 7.282 5.5C7.29228 5.5 7.30257 5.5 7.31287 5.5C7.32316 5.5 7.33345 5.5 7.34375 5.5C7.35405 5.5 7.36435 5.5 7.37466 5.5C7.38496 5.5 7.39527 5.5 7.40558 5.5C7.41589 5.5 7.4262 5.5 7.43652 5.5C7.44683 5.5 7.45715 5.5 7.46747 5.5C7.47779 5.5 7.48811 5.5 7.49844 5.5C7.50876 5.5 7.51909 5.5 7.52942 5.5C7.53975 5.5 7.55008 5.5 7.56042 5.5C7.57075 5.5 7.58108 5.5 7.59142 5.5C7.60176 5.5 7.6121 5.5 7.62244 5.5C7.63278 5.5 7.64312 5.5 7.65347 5.5C7.66381 5.5 7.67416 5.5 7.68451 5.5C7.69485 5.5 7.7052 5.5 7.71555 5.5C7.7259 5.5 7.73625 5.5 7.7466 5.5C7.75696 5.5 7.76731 5.5 7.77767 5.5C7.78802 5.5 7.79838 5.5 7.80873 5.5C7.81909 5.5 7.82944 5.5 7.8398 5.5C7.85016 5.5 7.86052 5.5 7.87088 5.5C7.88124 5.5 7.8916 5.5 7.90196 5.5C7.91232 5.5 7.92268 5.5 7.93304 5.5C7.9434 5.5 7.95376 5.5 7.96412 5.5C7.97448 5.5 7.98484 5.5 7.9952 5.5C8.00556 5.5 8.01592 5.5 8.02629 5.5C8.03665 5.5 8.04701 5.5 8.05737 5.5C8.06773 5.5 8.07809 5.5 8.08845 5.5C8.09881 5.5 8.10916 5.5 8.11952 5.5C8.12988 5.5 8.14024 5.5 8.1506 5.5C8.16095 5.5 8.17131 5.5 8.18166 5.5C8.19202 5.5 8.20237 5.5 8.21273 5.5C8.22308 5.5 8.23343 5.5 8.24378 5.5C8.25413 5.5 8.26448 5.5 8.27483 5.5C8.28518 5.5 8.29553 5.5 8.30587 5.5C8.31622 5.5 8.32656 5.5 8.3369 5.5C8.34725 5.5 8.35759 5.5 8.36793 5.5C8.37826 5.5 8.3886 5.5 8.39894 5.5C8.40927 5.5 8.4196 5.5 8.42994 5.5C8.44027 5.5 8.4506 5.5 8.46092 5.5C8.47125 5.5 8.48157 5.5 8.4919 5.5C8.50222 5.5 8.51254 5.5 8.52285 5.5C8.53317 5.5 8.54349 5.5 8.5538 5.5C8.56411 5.5 8.57442 5.5 8.58473 5.5C8.59503 5.5 8.60534 5.5 8.61564 5.5C8.62594 5.5 8.63623 5.5 8.64653 5.5C8.65682 5.5 8.66712 5.5 8.6774 5.5C8.68769 5.5 8.69798 5.5 8.70826 5.5C8.71854 5.5 8.72882 5.5 8.73909 5.5C8.74937 5.5 8.75964 5.5 8.76991 5.5C8.78017 5.5 8.79044 5.5 8.8007 5.5C8.81096 5.5 8.82121 5.5 8.83146 5.5C8.84171 5.5 8.85196 5.5 8.86221 5.5C8.87245 5.5 8.88269 5.5 8.89293 5.5C8.90316 5.5 8.91339 5.5 8.92362 5.5C8.93384 5.5 8.94407 5.5 8.95428 5.5C8.9645 5.5 8.97472 5.5 8.98492 5.5C8.99513 5.5 9.00534 5.5 9.01553 5.5C9.02573 5.5 9.03593 5.5 9.04612 5.5C9.0563 5.5 9.06649 5.5 9.07667 5.5C9.08684 5.5 9.09702 5.5 9.10719 5.5C9.11735 5.5 9.12752 5.5 9.13768 5.5C9.14783 5.5 9.15798 5.5 9.16813 5.5C9.17828 5.5 9.18842 5.5 9.19855 5.5C9.20869 5.5 9.21882 5.5 9.22894 5.5C9.23906 5.5 9.24918 5.5 9.25929 5.5C9.2694 5.5 9.27951 5.5 9.28961 5.5C9.29971 5.5 9.3098 5.5 9.31989 5.5C9.32997 5.5 9.34005 5.5 9.35013 5.5C9.3602 5.5 9.37027 5.5 9.38033 5.5C9.39039 5.5 9.40044 5.5 9.41049 5.5C9.42054 5.5 9.43058 5.5 9.44061 5.5C9.45065 5.5 9.46067 5.5 9.47069 5.5C9.48071 5.5 9.49073 5.5 9.50073 5.5C9.51074 5.5 9.52073 5.5 9.53073 5.5C9.54072 5.5 9.5507 5.5 9.56068 5.5C9.57065 5.5 9.58062 5.5 9.59058 5.5C9.60054 5.5 9.61049 5.5 9.62044 5.5C9.63039 5.5 9.64032 5.5 9.65025 5.5C9.66018 5.5 9.6701 5.5 9.68002 5.5C9.68993 5.5 9.69984 5.5 9.70973 5.5C9.71963 5.5 9.72952 5.5 9.7394 5.5C9.74928 5.5 9.75915 5.5 9.76902 5.5C9.77888 5.5 9.78874 5.5 9.79858 5.5C9.80843 5.5 9.81827 5.5 9.8281 5.5C9.83793 5.5 9.84775 5.5 9.85756 5.5C9.86737 5.5 9.87717 5.5 9.88696 5.5C9.89676 5.5 9.90654 5.5 9.91632 5.5C9.92609 5.5 9.93586 5.5 9.94561 5.5C9.95537 5.5 9.96512 5.5 9.97485 5.5C9.98459 5.5 9.99432 5.5 10.004 5.5C10.0138 5.5 10.0235 5.5 10.0332 5.5C10.0429 5.5 10.0525 5.5 10.0622 5.5C10.0719 5.5 10.0816 5.5 10.0912 5.5C10.1009 5.5 10.1105 5.5 10.1202 5.5C10.1298 5.5 10.1394 5.5 10.1491 5.5C10.1587 5.5 10.1683 5.5 10.1779 5.5C10.1875 5.5 10.1971 5.5 10.2066 5.5C10.2162 5.5 10.2258 5.5 10.2353 5.5C10.2449 5.5 10.2544 5.5 10.264 5.5C10.2735 5.5 10.283 5.5 10.2925 5.5C10.302 5.5 10.3115 5.5 10.321 5.5C10.3305 5.5 10.34 5.5 10.3494 5.5C10.3589 5.5 10.3684 5.5 10.3778 5.5C10.3872 5.5 10.3967 5.5 10.4061 5.5C10.4155 5.5 10.4249 5.5 10.4343 5.5C10.4437 5.5 10.4531 5.5 10.4625 5.5C10.4718 5.5 10.4812 5.5 10.4905 5.5C10.4999 5.5 10.5092 5.5 10.5185 5.5C10.5279 5.5 10.5372 5.5 10.5465 5.5C10.5558 5.5 10.565 5.5 10.5743 5.5C10.5836 5.5 10.5928 5.5 10.6021 5.5C10.6113 5.5 10.6206 5.5 10.6298 5.5C10.639 5.5 10.6482 5.5 10.6574 5.5C10.6666 5.5 10.6758 5.5 10.685 5.5C10.6941 5.5 10.7033 5.5 10.7124 5.5C10.7216 5.5 10.7307 5.5 10.7398 5.5C10.7489 5.5 10.758 5.5 10.7671 5.5C10.7762 5.5 10.7853 5.5 10.7943 5.5C10.8034 5.5 10.8124 5.5 10.8215 5.5C10.8305 5.5 10.8395 5.5 10.8485 5.5C10.8575 5.5 10.8665 5.5 10.8755 5.5C10.8845 5.5 10.8934 5.5 10.9024 5.5C10.9113 5.5 10.9203 5.5 10.9292 5.5C10.9381 5.5 10.947 5.5 10.9559 5.5C10.9648 5.5 10.9737 5.5 10.9825 5.5C10.9914 5.5 11.0002 5.5 11.0091 5.5C11.0179 5.5 11.0267 5.5 11.0355 5.5C11.0443 5.5 11.0531 5.5 11.0619 5.5C11.0706 5.5 11.0794 5.5 11.0881 5.5C11.0969 5.5 11.1056 5.5 11.1143 5.5C11.123 5.5 11.1317 5.5 11.1404 5.5C11.1491 5.5 11.1577 5.5 11.1664 5.5C11.175 5.5 11.1836 5.5 11.1922 5.5C11.2009 5.5 11.2095 5.5 11.218 5.5C11.2266 5.5 11.2352 5.5 11.2437 5.5C11.2523 5.5 11.2608 5.5 11.2693 5.5C11.2779 5.5 11.2864 5.5 11.2948 5.5C11.3033 5.5 11.3118 5.5 11.3202 5.5C11.3287 5.5 11.3371 5.5 11.3455 5.5C11.354 5.5 11.3624 5.5 11.3707 5.5C11.3791 5.5 11.3875 5.5 11.3958 5.5C11.4042 5.5 11.4125 5.5 11.4208 5.5C11.4291 5.5 11.4374 5.5 11.4457 5.5C11.454 5.5 11.4623 5.5 11.4705 5.5C11.4788 5.5 11.487 5.5 11.4952 5.5C11.5034 5.5 11.5116 5.5 11.5198 5.5C11.5279 5.5 11.5361 5.5 11.5442 5.5C11.5524 5.5 11.5605 5.5 11.5686 5.5C11.5767 5.5 11.5848 5.5 11.5928 5.5C11.6009 5.5 11.609 5.5 11.617 5.5C11.625 5.5 11.633 5.5 11.641 5.5C11.649 5.5 11.657 5.5 11.6649 5.5C11.6729 5.5 11.6808 5.5 11.6887 5.5C11.6966 5.5 11.7045 5.5 11.7124 5.5C11.7203 5.5 11.7282 5.5 11.736 5.5C11.7438 5.5 11.7517 5.5 11.7595 5.5C11.7673 5.5 11.775 5.5 11.7828 5.5C11.7906 5.5 11.7983 5.5 11.806 5.5C11.8138 5.5 11.8215 5.5 11.8291 5.5C11.8368 5.5 11.8445 5.5 11.8521 5.5C11.8598 5.5 11.8674 5.5 11.875 5.5C11.8826 5.5 11.8902 5.5 11.8978 5.5C11.9053 5.5 11.9129 5.5 11.9204 5.5C11.9279 5.5 11.9354 5.5 11.9429 5.5C11.9504 5.5 11.9578 5.5 11.9653 5.5C11.9727 5.5 11.9802 5.5 11.9875 5.5C11.995 5.5 12.0023 5.5 12.0097 5.5C12.017 5.5 12.0244 5.5 12.0317 5.5C12.039 5.5 12.0463 5.5 12.0536 5.5C12.0609 5.5 12.0681 5.5 12.0753 5.5C12.0826 5.5 12.0898 5.5 12.097 5.5C12.1042 5.5 12.1113 5.5 12.1185 5.5C12.1256 5.5 12.1327 5.5 12.1398 5.5C12.1469 5.5 12.154 5.5 12.1611 5.5C12.1681 5.5 12.1752 5.5 12.1822 5.5C12.1892 5.5 12.1962 5.5 12.2032 5.5C12.2101 5.5 12.2171 5.5 12.224 5.5C12.2309 5.5 12.2378 5.5 12.2447 5.5C12.2516 5.5 12.2584 5.5 12.2653 5.5C12.2721 5.5 12.2789 5.5 12.2857 5.5C12.2925 5.5 12.2993 5.5 12.306 5.5C12.3127 5.5 12.3195 5.5 12.3262 5.5C12.3329 5.5 12.3395 5.5 12.3462 5.5C12.3528 5.5 12.3595 5.5 12.3661 5.5C12.3727 5.5 12.3792 5.5 12.3858 5.5C12.3924 5.5 12.3989 5.5 12.4054 5.5C12.4119 5.5 12.4184 5.5 12.4249 5.5C12.4313 5.5 12.4378 5.5 12.4442 5.5C12.4506 5.5 12.457 5.5 12.4633 5.5C12.4697 5.5 12.476 5.5 12.4824 5.5C12.4887 5.5 12.495 5.5 12.5012 5.5C12.5075 5.5 12.5137 5.5 12.52 5.5C12.5262 5.5 12.5324 5.5 12.5386 5.5C12.5447 5.5 12.5509 5.5 12.557 5.5C12.5631 5.5 12.5692 5.5 12.5753 5.5C12.5813 5.5 12.5874 5.5 12.5934 5.5C12.5994 5.5 12.6054 5.5 12.6114 5.5C12.6174 5.5 12.6233 5.5 12.6292 5.5C12.6351 5.5 12.641 5.5 12.6469 5.5C12.6528 5.5 12.6586 5.5 12.6644 5.5C12.6702 5.5 12.676 5.5 12.6818 5.5C12.6876 5.5 12.6933 5.5 12.699 5.5C12.7047 5.5 12.7104 5.5 12.7161 5.5C12.7217 5.5 12.7274 5.5 12.733 5.5C12.7386 5.5 12.7442 5.5 12.7497 5.5C12.7553 5.5 12.7608 5.5 12.7663 5.5C12.7718 5.5 12.7773 5.5 12.7827 5.5C12.7882 5.5 12.7936 5.5 12.799 5.5C12.8044 5.5 12.8097 5.5 12.8151 5.5C12.8204 5.5 12.8257 5.5 12.831 5.5C12.8363 5.5 12.8416 5.5 12.8468 5.5C12.852 5.5 12.8572 5.5 12.8624 5.5C12.8676 5.5 12.8727 5.5 12.8779 5.5C12.883 5.5 12.8881 5.5 12.8931 5.5C12.8982 5.5 12.9032 5.5 12.9082 5.5C12.9133 5.5 12.9182 5.5 12.9232 5.5C12.9281 5.5 12.9331 5.5 12.938 5.5C12.9429 5.5 12.9477 5.5 12.9526 5.5C12.9574 5.5 12.9622 5.5 12.967 5.5C12.9718 5.5 12.9766 5.5 12.9813 5.5C12.986 5.5 12.9907 5.5 12.9954 5.5C13 5.5 13.0047 5.5 13.0093 5.5C13.0139 5.5 13.0185 5.5 13.023 5.5C13.0276 5.5 13.0321 5.5 13.0366 5.5C13.0411 5.5 13.0456 5.5 13.05 5.5C13.0544 5.5 13.0588 5.5 13.0632 5.5C13.0676 5.5 13.0719 5.5 13.0763 5.5C13.0806 5.5 13.0849 5.5 13.0891 5.5C13.0934 5.5 13.0976 5.5 13.1018 5.5C13.106 5.5 13.1102 5.5 13.1143 5.5C13.1185 5.5 13.1226 5.5 13.1266 5.5C13.1307 5.5 13.1348 5.5 13.1388 5.5C13.1428 5.5 13.1468 5.5 13.1507 5.5C13.1547 5.5 13.1586 5.5 13.1625 5.5C13.1664 5.5 13.1703 5.5 13.1741 5.5C13.1779 5.5 13.1817 5.5 13.1855 5.5C13.1893 5.5 13.193 5.5 13.1967 5.5C13.2004 5.5 13.2041 5.5 13.2078 5.5C13.2114 5.5 13.215 5.5 13.2186 5.5C13.2222 5.5 13.2257 5.5 13.2292 5.5C13.2328 5.5 13.2363 5.5 13.2397 5.5C13.2432 5.5 13.2466 5.5 13.25 5.5C13.2534 5.5 13.2567 5.5 13.2601 5.5C13.2634 5.5 13.2667 5.5 13.27 5.5C13.2732 5.5 13.2765 5.5 13.2797 5.5C13.2829 5.5 13.286 5.5 13.2892 5.5C13.2923 5.5 13.2954 5.5 13.2985 5.5C13.3015 5.5 13.3046 5.5 13.3076 5.5C13.3106 5.5 13.3136 5.5 13.3165 5.5C13.3194 5.5 13.3223 5.5 13.3252 5.5C13.3281 5.5 13.3309 5.5 13.3337 5.5C13.3365 5.5 13.3393 5.5 13.342 5.5C13.3448 5.5 13.3475 5.5 13.3502 5.5C13.3528 5.5 13.3555 5.5 13.3581 5.5C13.3607 5.5 13.3633 5.5 13.3658 5.5C13.3683 5.5 13.3708 5.5 13.3733 5.5C13.3758 5.5 13.3782 5.5 13.3806 5.5C13.383 5.5 13.3854 5.5 13.3877 5.5C13.3901 5.5 13.3924 5.5 13.3946 5.5C13.3969 5.5 13.3991 5.5 13.4013 5.5C13.4035 5.5 13.4057 5.5 13.4078 5.5C13.4099 5.5 13.412 5.5 13.4141 5.5C13.4161 5.5 13.4182 5.5 13.4202 5.5C13.4221 5.5 13.4241 5.5 13.426 5.5C13.4279 5.5 13.4298 5.5 13.4317 5.5C13.4335 5.5 13.4353 5.5 13.4371 5.5C13.4389 5.5 13.4406 5.5 13.4423 5.5C13.444 5.5 13.4457 5.5 13.4473 5.5C13.449 5.5 13.4506 5.5 13.4521 5.5C13.4537 5.5 13.4552 5.5 13.4567 5.5C13.4582 5.5 13.4596 5.5 13.4611 5.5C13.4625 5.5 13.4639 5.5 13.4652 5.5C13.4666 5.5 13.4679 5.5 13.4691 5.5C13.4704 5.5 13.4717 5.5 13.4729 5.5C13.4741 5.5 13.4752 5.5 13.4763 5.5C13.4775 5.5 13.4786 5.5 13.4796 5.5C13.4807 5.5 13.4817 5.5 13.4827 5.5C13.4836 5.5 13.4846 5.5 13.4855 5.5C13.4864 5.5 13.4873 5.5 13.4881 5.5C13.4889 5.5 13.4897 5.5 13.4905 5.5C13.4912 5.5 13.4919 5.5 13.4926 5.5C13.4933 5.5 13.494 5.5 13.4946 5.5C13.4952 5.5 13.4957 5.5 13.4963 5.5C13.4968 5.5 13.4973 5.5 13.4977 5.5C13.4982 5.5 13.4986 5.5 13.499 5.5C13.4994 5.5 13.4997 5.5 13.5 5.5V3.5ZM3.5 4.5V3.25H1.5V4.5H3.5ZM11.297 14.4762C11.3097 14.2101 11.53 14 11.7965 14V16C12.5977 16 13.2567 15.3715 13.2948 14.5714L11.297 14.4762ZM11.7965 14H4.2035V16H11.7965V14ZM4.2035 14C4.46994 14 4.69032 14.2101 4.70297 14.4763L2.70522 14.5712C2.74325 15.3715 3.40237 16 4.2035 16V14ZM4.70296 14.4762L4.27324 5.45243L2.27551 5.54757L2.70523 14.5713L4.70296 14.4762ZM3.27437 6.5H12.7256V4.5H3.27437V6.5ZM11.7268 5.45243L11.297 14.4762L13.2948 14.5713L13.7245 5.54757L11.7268 5.45243Z" fill="#DE2929" mask="url(#path-1-inside-1_1321_7638)"/>
<mask id="path-3-inside-2_1321_7638" fill="white">
<path d="M8 14C8.27613 14 8.5 13.7761 8.5 13.5V7C8.5 6.72387 8.27613 6.5 8 6.5C7.72387 6.5 7.5 6.72387 7.5 7V13.5C7.5 13.7761 7.72384 14 8 14Z"/>
</mask>
<path d="M8 14C8.27613 14 8.5 13.7761 8.5 13.5V7C8.5 6.72387 8.27613 6.5 8 6.5C7.72387 6.5 7.5 6.72387 7.5 7V13.5C7.5 13.7761 7.72384 14 8 14Z" fill="#DE2929"/>
<path d="M8 15C8.82841 15 9.5 14.3284 9.5 13.5H7.5C7.5 13.2238 7.72384 13 8 13V15ZM9.5 13.5V7H7.5V13.5H9.5ZM9.5 7C9.5 6.17159 8.82841 5.5 8 5.5V7.5C7.72384 7.5 7.5 7.27616 7.5 7H9.5ZM8 5.5C7.17159 5.5 6.5 6.17159 6.5 7H8.5C8.5 7.27616 8.27616 7.5 8 7.5V5.5ZM6.5 7V13.5H8.5V7H6.5ZM6.5 13.5C6.5 14.3284 7.17152 15 8 15V13C8.27617 13 8.5 13.2239 8.5 13.5H6.5Z" fill="#DE2929" mask="url(#path-3-inside-2_1321_7638)"/>
<path d="M10.5 14C10.7761 14 11 13.7761 11 13.5V7C11 6.72387 10.7761 6.5 10.5 6.5C10.2239 6.5 10 6.72387 10 7V13.5C10 13.7761 10.2238 14 10.5 14Z" fill="#DE2929"/>
<path d="M5.5 14C5.77613 14 6 13.7761 6 13.5V7C6 6.72387 5.77613 6.5 5.5 6.5C5.22387 6.5 5 6.72387 5 7V13.5C5 13.7761 5.22384 14 5.5 14Z" fill="#DE2929"/>
</svg>
