<svg width="40" height="40" viewBox="0 0 40 40" fill="none" xmlns="http://www.w3.org/2000/svg">
<path d="M18.334 3.3335H15.0007C6.66732 3.3335 3.33398 6.66683 3.33398 15.0002V25.0002C3.33398 33.3335 6.66732 36.6668 15.0007 36.6668H25.0007C33.334 36.6668 36.6673 33.3335 36.6673 25.0002V21.6668" stroke="#212121" stroke-width="1.5" stroke-linecap="round" stroke-linejoin="round"/>
<path d="M26.7331 5.03327L13.5998 18.1666C13.0998 18.6666 12.5998 19.6499 12.4998 20.3666L11.7831 25.3833C11.5165 27.1999 12.7998 28.4666 14.6165 28.2166L19.6331 27.4999C20.3331 27.3999 21.3165 26.8999 21.8331 26.3999L34.9665 13.2666C37.2331 10.9999 38.2998 8.3666 34.9665 5.03327C31.6331 1.69993 28.9998 2.7666 26.7331 5.03327Z" stroke="#212121" stroke-width="1.5" stroke-miterlimit="10" stroke-linecap="round" stroke-linejoin="round"/>
<path d="M24.8496 6.9165C25.9663 10.8998 29.0829 14.0165 33.0829 15.1498" stroke="#212121" stroke-width="1.5" stroke-miterlimit="10" stroke-linecap="round" stroke-linejoin="round"/>
</svg>
