<svg width="20" height="20" viewBox="0 0 20 20" fill="none" xmlns="http://www.w3.org/2000/svg">
<path d="M10.0367 15.6912C9.35109 15.9437 8.48047 16.2637 7.37922 16.6719C5.49859 16.4094 3.52234 15.7975 2.66797 14.3931C2.97922 13.555 3.25047 12.8206 3.49047 12.1725C5.10047 14.0325 7.91359 15.2137 10.0367 15.6912Z" fill="white"/>
<path d="M10.5835 9.41814C8.75351 7.58876 6.39726 6.23751 5.43664 7.20001C5.23164 7.40501 5.29352 7.28251 3.86914 11.1481C5.38789 13.34 9.22539 14.8706 11.8985 15.005C12.6979 14.7044 12.6791 14.6894 12.8023 14.5656C13.9804 13.3875 11.761 10.595 10.5835 9.41814ZM12.1385 13.9019C12.0491 13.9925 11.6335 13.9969 10.8954 13.6325C10.0929 13.2356 9.17726 12.5438 8.31727 11.6838C6.32477 9.69126 5.85914 8.10251 6.09914 7.86251C6.13664 7.82501 6.20664 7.80501 6.30602 7.80501C6.84414 7.80501 8.23852 8.39939 9.92101 10.0813C10.781 10.9413 11.4735 11.8569 11.8704 12.6594C12.2348 13.3963 12.2285 13.8125 12.1385 13.9019Z" fill="white"/>
<path d="M5.66284 17.3087C4.58034 17.7112 3.33221 18.1775 1.88284 18.7206C1.50596 18.8594 1.14096 18.4931 1.28034 18.1181C1.64534 17.1406 1.97471 16.2569 2.27471 15.4506C3.09846 16.3969 4.33721 16.9706 5.66284 17.3087Z" fill="white"/>
<path d="M12.2932 2.43439C12.0013 2.48564 11.7194 2.53189 11.5282 2.62814C11.8157 3.06939 12.4163 3.63127 12.0494 4.36502C11.7213 5.02127 11.0394 4.98252 10.4476 5.00314C10.8107 5.49939 11.2307 6.00252 10.9069 6.65064C10.5713 7.32252 9.69133 7.46189 9.17195 7.54627C9.00383 7.57377 8.84758 7.46127 8.81633 7.29439L8.70258 6.68064C8.6707 6.51002 8.7857 6.34564 8.95633 6.31564C9.25195 6.26377 9.52883 6.21877 9.72133 6.12189C9.43258 5.68377 8.83445 5.11627 9.19945 4.38564C9.52695 3.73127 10.2082 3.76814 10.8013 3.74752C10.4376 3.25127 10.0182 2.74814 10.342 2.10002C10.6776 1.42877 11.5582 1.28877 12.0763 1.20439C12.2444 1.17689 12.4007 1.28939 12.4313 1.45627L12.5451 2.07002C12.5782 2.24064 12.4644 2.40439 12.2932 2.43439Z" fill="white"/>
<path d="M17.9316 7.45317L18.5453 7.56692C18.7128 7.59817 18.8247 7.75442 18.7972 7.92192C18.7128 8.44004 18.5728 9.32067 17.9016 9.65629C17.2534 9.98004 16.7503 9.56067 16.2541 9.19692C16.2334 9.79004 16.2703 10.4719 15.6159 10.7988C14.8853 11.1638 14.3178 10.5657 13.8797 10.2769C13.7828 10.4694 13.7378 10.7463 13.686 11.0419C13.656 11.2132 13.4916 11.3275 13.321 11.2957L12.7072 11.1819C12.5397 11.1507 12.4278 10.9944 12.4553 10.8263C12.5397 10.3075 12.6797 9.42754 13.351 9.09129C13.9985 8.76754 14.5022 9.18754 14.9985 9.55067C15.0191 8.95879 14.9803 8.27629 15.6366 7.94879C16.3703 7.58192 16.9322 8.18254 17.3734 8.47004C17.4697 8.27879 17.5159 7.99692 17.5672 7.70504C17.5966 7.53567 17.7603 7.42192 17.9316 7.45317Z" fill="white"/>
<path d="M16.0625 13.125H14.875C14.7712 13.125 14.6875 13.0413 14.6875 12.9375V12.375C14.6875 12.2712 14.7712 12.1875 14.875 12.1875H16.0625C16.1663 12.1875 16.25 12.2712 16.25 12.375V12.9375C16.25 13.0413 16.1663 13.125 16.0625 13.125Z" fill="white"/>
<path d="M17.3679 2.04567L16.5279 2.88567C16.4548 2.95879 16.336 2.95879 16.2629 2.88567L15.8654 2.48754C15.7923 2.41442 15.7923 2.29567 15.8654 2.22254L16.7054 1.38254C16.7785 1.30942 16.8973 1.30942 16.9704 1.38254L17.3679 1.78004C17.441 1.85317 17.441 1.97192 17.3679 2.04567Z" fill="white"/>
<path d="M7.625 4.0625H7.0625C6.95875 4.0625 6.875 3.97875 6.875 3.875V2.6875C6.875 2.58375 6.95875 2.5 7.0625 2.5H7.625C7.72875 2.5 7.8125 2.58375 7.8125 2.6875V3.875C7.8125 3.97875 7.72875 4.0625 7.625 4.0625Z" fill="white"/>
<path d="M12.1155 8.28438L11.6467 7.97188C11.5586 7.91313 11.533 7.79438 11.5936 7.70751C12.8692 5.89251 15.3286 4.00063 17.9305 3.90938C18.0374 3.90626 18.1261 3.99501 18.1261 4.10126V4.66438C18.1261 4.76438 18.0474 4.84251 17.9474 4.84688C15.7705 4.93313 13.5405 6.57251 12.3674 8.23688C12.3092 8.32001 12.1992 8.34063 12.1155 8.28438Z" fill="white"/>
</svg>
