<svg width="40" height="40" viewBox="0 0 40 40" fill="none" xmlns="http://www.w3.org/2000/svg">
<path d="M31.914 4.95183C31.617 4.45937 31.1981 4.05175 30.6977 3.76828C30.1974 3.48482 29.6324 3.33507 29.0573 3.3335H10.944C9.78065 3.3335 8.68565 3.9535 8.08732 4.95183L3.57232 12.4752C3.41608 12.7342 3.33366 13.031 3.33399 13.3335C3.34064 14.9422 3.93314 16.4934 5.00065 17.6968V31.6668C5.00065 33.5052 6.49565 35.0002 8.33398 35.0002H31.6673C33.5056 35.0002 35.0007 33.5052 35.0007 31.6668V17.6968C36.0682 16.4934 36.6607 14.9422 36.6673 13.3335C36.6676 13.031 36.5852 12.7342 36.429 12.4752L31.914 4.95183ZM33.3073 13.7518C33.2044 14.5565 32.8121 15.2962 32.2035 15.8327C31.595 16.3692 30.8119 16.6657 30.0007 16.6668C28.1623 16.6668 26.6673 15.1718 26.6673 13.3335C26.6673 13.2202 26.6257 13.1202 26.6023 13.0135L26.6357 13.0068L25.3673 6.66683H29.0573L33.3073 13.7518ZM18.0323 6.66683H21.9673L23.3223 13.4418C23.264 15.2285 21.8007 16.6668 20.0007 16.6668C18.2007 16.6668 16.7373 15.2285 16.679 13.4418L18.0323 6.66683ZM10.944 6.66683H14.634L13.3673 13.0068L13.4007 13.0135C13.3757 13.1202 13.334 13.2202 13.334 13.3335C13.334 15.1718 11.839 16.6668 10.0007 16.6668C9.1894 16.6657 8.40633 16.3692 7.79778 15.8327C7.18923 15.2962 6.79686 14.5565 6.69398 13.7518L10.944 6.66683ZM16.6673 31.6668V26.6668H23.334V31.6668H16.6673ZM26.6673 31.6668V26.6668C26.6673 24.8285 25.1723 23.3335 23.334 23.3335H16.6673C14.829 23.3335 13.334 24.8285 13.334 26.6668V31.6668H8.33398V19.7635C8.86899 19.9018 9.42065 20.0002 10.0007 20.0002C10.947 20.0007 11.8826 19.7992 12.7448 19.4091C13.6071 19.0191 14.3762 18.4495 15.0007 17.7385C16.2223 19.1252 18.0123 20.0002 20.0007 20.0002C21.989 20.0002 23.779 19.1252 25.0007 17.7385C25.6252 18.4495 26.3942 19.0191 27.2565 19.4091C28.1187 19.7992 29.0543 20.0007 30.0007 20.0002C30.5807 20.0002 31.1323 19.9018 31.6673 19.7635V31.6668H26.6673Z" fill="#212121"/>
</svg>
