<svg width="41" height="40" viewBox="0 0 41 40" fill="none" xmlns="http://www.w3.org/2000/svg">
<path d="M10.5 16.6668V13.3335C10.5 7.81683 12.1667 3.3335 20.5 3.3335C28.8333 3.3335 30.5 7.81683 30.5 13.3335V16.6668" stroke="#212121" stroke-width="1.5" stroke-linecap="round" stroke-linejoin="round"/>
<path d="M20.5007 30.8333C22.8018 30.8333 24.6673 28.9679 24.6673 26.6667C24.6673 24.3655 22.8018 22.5 20.5007 22.5C18.1995 22.5 16.334 24.3655 16.334 26.6667C16.334 28.9679 18.1995 30.8333 20.5007 30.8333Z" stroke="#212121" stroke-width="1.5" stroke-linecap="round" stroke-linejoin="round"/>
<path d="M28.833 36.6665H12.1663C5.49967 36.6665 3.83301 34.9998 3.83301 28.3332V24.9998C3.83301 18.3332 5.49967 16.6665 12.1663 16.6665H28.833C35.4997 16.6665 37.1663 18.3332 37.1663 24.9998V28.3332C37.1663 34.9998 35.4997 36.6665 28.833 36.6665Z" stroke="#212121" stroke-width="1.5" stroke-linecap="round" stroke-linejoin="round"/>
</svg>
