<svg width="40" height="40" viewBox="0 0 40 40" fill="none" xmlns="http://www.w3.org/2000/svg">
<path d="M33.3327 11.6668V28.3335C33.3327 35.0002 31.666 36.6668 24.9993 36.6668H14.9993C8.33268 36.6668 6.66602 35.0002 6.66602 28.3335V11.6668C6.66602 5.00016 8.33268 3.3335 14.9993 3.3335H24.9993C31.666 3.3335 33.3327 5.00016 33.3327 11.6668Z" stroke="#212121" stroke-width="1.5" stroke-linecap="round" stroke-linejoin="round"/>
<path d="M23.3327 9.16699H16.666" stroke="#212121" stroke-width="1.5" stroke-linecap="round" stroke-linejoin="round"/>
<path d="M19.9993 31.8337C21.4261 31.8337 22.5827 30.6771 22.5827 29.2503C22.5827 27.8236 21.4261 26.667 19.9993 26.667C18.5726 26.667 17.416 27.8236 17.416 29.2503C17.416 30.6771 18.5726 31.8337 19.9993 31.8337Z" stroke="#212121" stroke-width="1.5" stroke-linecap="round" stroke-linejoin="round"/>
</svg>
