<svg width="17" height="16" viewBox="0 0 17 16" fill="none" xmlns="http://www.w3.org/2000/svg">
<path d="M12.5449 5.67318L6.83822 2.81985C3.00489 0.899845 1.43156 2.47318 3.35156 6.30651L3.93156 7.46651C4.09822 7.80651 4.09822 8.19985 3.93156 8.53985L3.35156 9.69318C1.43156 13.5265 2.99822 15.0998 6.83822 13.1798L12.5449 10.3265C15.1049 9.04651 15.1049 6.95318 12.5449 5.67318ZM10.3916 8.49985H6.79156C6.51822 8.49985 6.29156 8.27318 6.29156 7.99985C6.29156 7.72651 6.51822 7.49985 6.79156 7.49985H10.3916C10.6649 7.49985 10.8916 7.72651 10.8916 7.99985C10.8916 8.27318 10.6649 8.49985 10.3916 8.49985Z" fill="white"/>
</svg>
