<svg width="41" height="40" viewBox="0 0 41 40" fill="none" xmlns="http://www.w3.org/2000/svg">
<path d="M33.8337 13.7502V30.0002C33.8337 35.0002 30.8503 36.6668 27.167 36.6668H13.8337C10.1503 36.6668 7.16699 35.0002 7.16699 30.0002V13.7502C7.16699 8.3335 10.1503 7.0835 13.8337 7.0835C13.8337 8.11683 14.2503 9.05016 14.9336 9.73349C15.6169 10.4168 16.5503 10.8335 17.5837 10.8335H23.417C25.4837 10.8335 27.167 9.15016 27.167 7.0835C30.8503 7.0835 33.8337 8.3335 33.8337 13.7502Z" stroke="#212121" stroke-width="1.5" stroke-linecap="round" stroke-linejoin="round"/>
<path d="M27.1673 7.0835C27.1673 9.15016 25.484 10.8335 23.4173 10.8335H17.584C16.5507 10.8335 15.6173 10.4168 14.9339 9.73349C14.2506 9.05016 13.834 8.11683 13.834 7.0835C13.834 5.01683 15.5173 3.3335 17.584 3.3335H23.4173C24.4507 3.3335 25.384 3.75017 26.0674 4.4335C26.7507 5.11684 27.1673 6.05016 27.1673 7.0835Z" stroke="#212121" stroke-width="1.5" stroke-linecap="round" stroke-linejoin="round"/>
<path d="M13.834 21.6665H20.5007" stroke="#212121" stroke-width="1.5" stroke-linecap="round" stroke-linejoin="round"/>
<path d="M13.834 28.3335H27.1673" stroke="#212121" stroke-width="1.5" stroke-linecap="round" stroke-linejoin="round"/>
</svg>
