<svg width="26" height="26" viewBox="0 0 26 26" fill="none" xmlns="http://www.w3.org/2000/svg">
<path d="M21.5582 24.6458H4.4415C2.3615 24.6458 1.354 23.5842 1.354 21.4175V17.0408C1.354 14.8633 2.3615 13.8125 4.4415 13.8125H21.5582C23.6382 13.8125 24.6457 14.8742 24.6457 17.0408V21.4175C24.6457 23.5842 23.6382 24.6458 21.5582 24.6458ZM4.4415 15.4375C3.34734 15.4375 2.979 15.665 2.979 17.0408V21.4175C2.979 22.7933 3.34734 23.0208 4.4415 23.0208H21.5582C22.6523 23.0208 23.0207 22.7933 23.0207 21.4175V17.0408C23.0207 15.665 22.6523 15.4375 21.5582 15.4375H4.4415Z" fill="#999999"/>
<path d="M21.5582 12.1878H4.4415C2.3615 12.1878 1.354 11.1262 1.354 8.95949V4.58283C1.354 2.40533 2.3615 1.35449 4.4415 1.35449H21.5582C23.6382 1.35449 24.6457 2.41616 24.6457 4.58283V8.95949C24.6457 11.1262 23.6382 12.1878 21.5582 12.1878ZM4.4415 2.97949C3.34734 2.97949 2.979 3.20699 2.979 4.58283V8.95949C2.979 10.3353 3.34734 10.5628 4.4415 10.5628H21.5582C22.6523 10.5628 23.0207 10.3353 23.0207 8.95949V4.58283C23.0207 3.20699 22.6523 2.97949 21.5582 2.97949H4.4415Z" fill="#999999"/>
</svg>
