<svg width="26" height="26" viewBox="0 0 26 26" fill="none" xmlns="http://www.w3.org/2000/svg">
<path d="M21.4175 12.1878H17.0408C14.8633 12.1878 13.8125 11.2237 13.8125 9.23033V4.31199C13.8125 2.31866 14.8742 1.35449 17.0408 1.35449H21.4175C23.595 1.35449 24.6458 2.31866 24.6458 4.31199V9.21949C24.6458 11.2237 23.5842 12.1878 21.4175 12.1878ZM17.0408 2.97949C15.5892 2.97949 15.4375 3.39116 15.4375 4.31199V9.21949C15.4375 10.1512 15.5892 10.552 17.0408 10.552H21.4175C22.8692 10.552 23.0208 10.1403 23.0208 9.21949V4.31199C23.0208 3.38033 22.8692 2.97949 21.4175 2.97949H17.0408Z" fill="#212121"/>
<path d="M21.4175 24.6458H17.0408C14.8633 24.6458 13.8125 23.5842 13.8125 21.4175V17.0408C13.8125 14.8633 14.8742 13.8125 17.0408 13.8125H21.4175C23.595 13.8125 24.6458 14.8742 24.6458 17.0408V21.4175C24.6458 23.5842 23.5842 24.6458 21.4175 24.6458ZM17.0408 15.4375C15.7625 15.4375 15.4375 15.7625 15.4375 17.0408V21.4175C15.4375 22.6958 15.7625 23.0208 17.0408 23.0208H21.4175C22.6958 23.0208 23.0208 22.6958 23.0208 21.4175V17.0408C23.0208 15.7625 22.6958 15.4375 21.4175 15.4375H17.0408Z" fill="#212121"/>
<path d="M8.959 12.1878H4.58234C2.40484 12.1878 1.354 11.2237 1.354 9.23033V4.31199C1.354 2.31866 2.41567 1.35449 4.58234 1.35449H8.959C11.1365 1.35449 12.1873 2.31866 12.1873 4.31199V9.21949C12.1873 11.2237 11.1257 12.1878 8.959 12.1878ZM4.58234 2.97949C3.13067 2.97949 2.979 3.39116 2.979 4.31199V9.21949C2.979 10.1512 3.13067 10.552 4.58234 10.552H8.959C10.4107 10.552 10.5623 10.1403 10.5623 9.21949V4.31199C10.5623 3.38033 10.4107 2.97949 8.959 2.97949H4.58234Z" fill="#212121"/>
<path d="M8.959 24.6458H4.58234C2.40484 24.6458 1.354 23.5842 1.354 21.4175V17.0408C1.354 14.8633 2.41567 13.8125 4.58234 13.8125H8.959C11.1365 13.8125 12.1873 14.8742 12.1873 17.0408V21.4175C12.1873 23.5842 11.1257 24.6458 8.959 24.6458ZM4.58234 15.4375C3.304 15.4375 2.979 15.7625 2.979 17.0408V21.4175C2.979 22.6958 3.304 23.0208 4.58234 23.0208H8.959C10.2373 23.0208 10.5623 22.6958 10.5623 21.4175V17.0408C10.5623 15.7625 10.2373 15.4375 8.959 15.4375H4.58234Z" fill="#212121"/>
</svg>
