<svg width="26" height="26" viewBox="0 0 26 26" fill="none" xmlns="http://www.w3.org/2000/svg">
<path d="M24.032 12.8226L13.5736 2.37181C13.4983 2.29635 13.4089 2.2365 13.3104 2.19565C13.212 2.15481 13.1064 2.13379 12.9998 2.13379C12.8932 2.13379 12.7877 2.15481 12.6892 2.19565C12.5907 2.2365 12.5013 2.29635 12.426 2.37181L1.96758 12.8226C1.66289 13.1273 1.49023 13.5411 1.49023 13.9728C1.49023 14.8691 2.21895 15.5978 3.11523 15.5978H4.21719V23.055C4.21719 23.5044 4.58027 23.8675 5.02969 23.8675H11.3748V18.18H14.2186V23.8675H20.9699C21.4193 23.8675 21.7824 23.5044 21.7824 23.055V15.5978H22.8844C23.316 15.5978 23.7299 15.4277 24.0346 15.1204C24.6668 14.4857 24.6668 13.4574 24.032 12.8226Z" fill="#505050"/>
</svg>
