<svg width="17" height="16" viewBox="0 0 17 16" fill="none" xmlns="http://www.w3.org/2000/svg">
<mask id="path-1-inside-1_1195_7645" fill="white">
<path d="M12.3335 8.33301H4.3335C4.06016 8.33301 3.8335 8.10634 3.8335 7.83301C3.8335 7.55967 4.06016 7.33301 4.3335 7.33301H12.3335C12.6068 7.33301 12.8335 7.55967 12.8335 7.83301C12.8335 8.10634 12.6068 8.33301 12.3335 8.33301Z"/>
</mask>
<path d="M12.3335 8.33301H4.3335C4.06016 8.33301 3.8335 8.10634 3.8335 7.83301C3.8335 7.55967 4.06016 7.33301 4.3335 7.33301H12.3335C12.6068 7.33301 12.8335 7.55967 12.8335 7.83301C12.8335 8.10634 12.6068 8.33301 12.3335 8.33301Z" fill="white"/>
<path d="M12.3335 7.33301H4.3335V9.33301H12.3335V7.33301ZM4.3335 7.33301C4.61245 7.33301 4.8335 7.55406 4.8335 7.83301H2.8335C2.8335 8.65863 3.50788 9.33301 4.3335 9.33301V7.33301ZM4.8335 7.83301C4.8335 8.11196 4.61245 8.33301 4.3335 8.33301V6.33301C3.50788 6.33301 2.8335 7.00739 2.8335 7.83301H4.8335ZM4.3335 8.33301H12.3335V6.33301H4.3335V8.33301ZM12.3335 8.33301C12.0545 8.33301 11.8335 8.11196 11.8335 7.83301H13.8335C13.8335 7.00739 13.1591 6.33301 12.3335 6.33301V8.33301ZM11.8335 7.83301C11.8335 7.55406 12.0545 7.33301 12.3335 7.33301V9.33301C13.1591 9.33301 13.8335 8.65863 13.8335 7.83301H11.8335Z" fill="#01529A" mask="url(#path-1-inside-1_1195_7645)"/>
<mask id="path-3-inside-2_1195_7645" fill="white">
<path d="M8.3335 12.333C8.06016 12.333 7.8335 12.1063 7.8335 11.833V3.83301C7.8335 3.55967 8.06016 3.33301 8.3335 3.33301C8.60683 3.33301 8.8335 3.55967 8.8335 3.83301V11.833C8.8335 12.1063 8.60683 12.333 8.3335 12.333Z"/>
</mask>
<path d="M8.3335 12.333C8.06016 12.333 7.8335 12.1063 7.8335 11.833V3.83301C7.8335 3.55967 8.06016 3.33301 8.3335 3.33301C8.60683 3.33301 8.8335 3.55967 8.8335 3.83301V11.833C8.8335 12.1063 8.60683 12.333 8.3335 12.333Z" fill="white"/>
<path d="M8.3335 11.333C8.61245 11.333 8.8335 11.5541 8.8335 11.833H6.8335C6.8335 12.6586 7.50788 13.333 8.3335 13.333V11.333ZM8.8335 11.833V3.83301H6.8335V11.833H8.8335ZM8.8335 3.83301C8.8335 4.11196 8.61245 4.33301 8.3335 4.33301V2.33301C7.50788 2.33301 6.8335 3.00739 6.8335 3.83301H8.8335ZM8.3335 4.33301C8.05454 4.33301 7.8335 4.11196 7.8335 3.83301H9.8335C9.8335 3.00739 9.15911 2.33301 8.3335 2.33301V4.33301ZM7.8335 3.83301V11.833H9.8335V3.83301H7.8335ZM7.8335 11.833C7.8335 11.5541 8.05454 11.333 8.3335 11.333V13.333C9.15911 13.333 9.8335 12.6586 9.8335 11.833H7.8335Z" fill="#01529A" mask="url(#path-3-inside-2_1195_7645)"/>
</svg>
