<svg width="20" height="20" viewBox="0 0 20 20" fill="none" xmlns="http://www.w3.org/2000/svg">
<g clip-path="url(#clip0_1273_16210)">
<path d="M6.66667 11H6V11.6667H6.66667V11Z" fill="#999999" stroke="#999999" stroke-width="0.3"/>
<path d="M6.66667 12.333H6V12.9997H6.66667V12.333Z" fill="#999999" stroke="#999999" stroke-width="0.3"/>
<path d="M6.66667 13.666H6V14.3327H6.66667V13.666Z" fill="#999999" stroke="#999999" stroke-width="0.3"/>
<path d="M6.66667 9.66602H6V10.3327H6.66667V9.66602Z" fill="#999999" stroke="#999999" stroke-width="0.3"/>
<path d="M6.66667 8.33301H6V8.99968H6.66667V8.33301Z" fill="#999999" stroke="#999999" stroke-width="0.3"/>
<path d="M6.66667 7H6V7.66667H6.66667V7Z" fill="#999999" stroke="#999999" stroke-width="0.3"/>
<path d="M6.66667 5.66602H6V6.33268H6.66667V5.66602Z" fill="#999999" stroke="#999999" stroke-width="0.3"/>
<path d="M2.00065 5.66602H1.33398V6.33268H2.00065V5.66602Z" fill="#999999" stroke="#999999" stroke-width="0.3"/>
<path d="M18.6667 5.66602H18V6.33268H18.6667V5.66602Z" fill="#999999" stroke="#999999" stroke-width="0.3"/>
<path d="M18.6667 13.666H18V14.3327H18.6667V13.666Z" fill="#999999" stroke="#999999" stroke-width="0.3"/>
<path d="M2.00065 13.666H1.33398V14.3327H2.00065V13.666Z" fill="#999999" stroke="#999999" stroke-width="0.3"/>
<path d="M19.6667 8.33301C19.8507 8.33301 20 8.18376 20 7.99968V4.66634C20 4.48226 19.8507 4.33301 19.6667 4.33301H0.333333C0.14925 4.33301 0 4.48226 0 4.66634V7.99968C0 8.18376 0.14925 8.33301 0.333333 8.33301C1.25379 8.33301 2 9.07922 2 9.99968C2 10.9201 1.25379 11.6663 0.333333 11.6663C0.14925 11.6663 0 11.8156 0 11.9997V15.333C0 15.5171 0.14925 15.6663 0.333333 15.6663H19.6667C19.8507 15.6663 20 15.5171 20 15.333V11.9997C20 11.8156 19.8507 11.6663 19.6667 11.6663C18.7462 11.6663 18 10.9201 18 9.99968C18 9.07922 18.7462 8.33301 19.6667 8.33301ZM17.3552 10.3312C17.5023 11.3566 18.3079 12.1622 19.3333 12.3093V14.9997H0.666666V12.3093C1.94225 12.1263 2.82791 10.9438 2.64483 9.66818C2.49767 8.6428 1.69208 7.83718 0.666666 7.69001V4.99967H19.3333V7.69001C18.0577 7.87309 17.1721 9.05555 17.3552 10.3312Z" fill="#999999" stroke="#999999" stroke-width="0.3"/>
<path d="M9.99935 6.66602C9.26298 6.66602 8.66602 7.26298 8.66602 7.99935C8.66602 8.73573 9.26298 9.33269 9.99935 9.33269C10.7357 9.33269 11.3327 8.73573 11.3327 7.99935C11.3327 7.26298 10.7357 6.66602 9.99935 6.66602ZM9.99935 8.66602C9.63114 8.66602 9.33268 8.36756 9.33268 7.99935C9.33268 7.63114 9.63114 7.33268 9.99935 7.33268C10.3676 7.33268 10.666 7.63114 10.666 7.99935C10.666 8.36756 10.3676 8.66602 9.99935 8.66602Z" fill="#999999" stroke="#999999" stroke-width="0.3"/>
<path d="M13.9994 10.666C13.263 10.666 12.666 11.263 12.666 11.9993C12.666 12.7357 13.263 13.3327 13.9994 13.3327C14.7357 13.3327 15.3327 12.7357 15.3327 11.9993C15.3327 11.263 14.7357 10.666 13.9994 10.666ZM13.9994 12.666C13.6311 12.666 13.3327 12.3675 13.3327 11.9993C13.3327 11.6311 13.6311 11.3327 13.9994 11.3327C14.3676 11.3327 14.666 11.6311 14.666 11.9993C14.666 12.3675 14.3676 12.666 13.9994 12.666Z" fill="#999999" stroke="#999999" stroke-width="0.3"/>
<path d="M14.4309 7.09648L9.09766 12.4297L9.56906 12.9011L14.9023 7.56788L14.4309 7.09648Z" fill="#999999" stroke="#999999" stroke-width="0.3"/>
</g>
<defs>
<clipPath id="clip0_1273_16210">
<rect width="20" height="20" fill="white"/>
</clipPath>
</defs>
</svg>
