<svg width="216" height="221" viewBox="0 0 216 221" fill="none" xmlns="http://www.w3.org/2000/svg">
<path d="M210.553 44.3965C213.248 44.3965 215.436 46.584 215.436 49.2793C215.436 51.9746 213.248 54.1621 210.553 54.1621C207.857 54.1621 205.67 51.9746 205.67 49.2793C205.67 46.584 207.857 44.3965 210.553 44.3965Z" fill="#01529A"/>
<path d="M210.553 171.35C213.248 171.35 215.436 173.537 215.436 176.232C215.436 178.928 213.248 181.115 210.553 181.115C207.857 181.115 205.67 178.928 205.67 176.232C205.67 173.537 207.857 171.35 210.553 171.35Z" fill="#01529A"/>
<path d="M186.139 200.646C191.534 200.646 195.904 205.017 195.904 210.412C195.904 215.808 191.534 220.178 186.139 220.178C180.743 220.178 176.373 215.808 176.373 210.412C176.373 205.017 180.743 200.646 186.139 200.646Z" fill="#01529A"/>
<path d="M176.373 0.451172C179.068 0.451172 181.256 2.63867 181.256 5.33398C181.256 8.0293 179.068 10.2168 176.373 10.2168C173.678 10.2168 171.49 8.0293 171.49 5.33398C171.49 2.63867 173.678 0.451172 176.373 0.451172Z" fill="#01529A"/>
<path d="M108.014 15.0996C54.0781 15.0996 10.3574 58.8203 10.3574 112.756C10.3574 166.691 54.0781 210.412 108.014 210.412C161.949 210.412 205.67 166.691 205.67 112.756C205.67 58.8203 161.949 15.0996 108.014 15.0996Z" fill="#8AC8FF"/>
<path d="M108.014 185.998C67.5645 185.998 34.7715 153.205 34.7715 112.756C34.7715 72.3066 67.5645 39.5137 108.014 39.5137C148.463 39.5137 181.256 72.3066 181.256 112.756C181.256 153.205 148.463 185.998 108.014 185.998Z" fill="white"/>
<path d="M144.317 89.6699C148.131 93.4834 148.131 99.665 144.317 103.479L109.791 138.01L95.9819 151.818L82.1685 138.01L71.812 127.648C69.9082 125.744 68.9512 123.244 68.9512 120.744C68.9512 118.244 69.9082 115.744 71.812 113.839C75.626 110.026 81.8076 110.026 85.6206 113.839L95.9819 124.196L130.509 89.6699C132.418 87.7656 134.913 86.8086 137.413 86.8086C139.913 86.8086 142.408 87.7656 144.317 89.6699Z" fill="#01529A"/>
<path d="M34.7715 210.412C37.4668 210.412 39.6543 212.6 39.6543 215.295C39.6543 217.99 37.4668 220.178 34.7715 220.178C32.0757 220.178 29.8887 217.99 29.8887 215.295C29.8887 212.6 32.0757 210.412 34.7715 210.412Z" fill="#01529A"/>
<path d="M22.5645 10.2168C29.3076 10.2168 34.7715 15.6807 34.7715 22.4238C34.7715 29.167 29.3076 34.6309 22.5645 34.6309C15.8208 34.6309 10.3574 29.167 10.3574 22.4238C10.3574 15.6807 15.8208 10.2168 22.5645 10.2168Z" fill="#01529A"/>
<path d="M5.47461 49.2793C8.16992 49.2793 10.3574 51.4668 10.3574 54.1621C10.3574 56.8574 8.16992 59.0449 5.47461 59.0449C2.77881 59.0449 0.591797 56.8574 0.591797 54.1621C0.591797 51.4668 2.77881 49.2793 5.47461 49.2793Z" fill="#01529A"/>
<path d="M5.47461 171.35C8.16992 171.35 10.3574 173.537 10.3574 176.232C10.3574 178.928 8.16992 181.115 5.47461 181.115C2.77881 181.115 0.591797 178.928 0.591797 176.232C0.591797 173.537 2.77881 171.35 5.47461 171.35Z" fill="#01529A"/>
<path d="M166.607 112.756C166.607 110.059 164.421 107.873 161.725 107.873C159.028 107.873 156.842 110.059 156.842 112.756C156.842 139.68 134.938 161.584 108.014 161.584C105.317 161.584 103.131 163.771 103.131 166.467V185.832C104.745 185.938 106.373 185.998 108.014 185.998C109.655 185.998 111.282 185.938 112.896 185.832V171.148C142.929 168.658 166.607 143.42 166.607 112.756Z" fill="#DDDDDD"/>
<path d="M49.4199 112.756C49.4199 115.452 51.606 117.639 54.3027 117.639C56.999 117.639 59.1855 115.452 59.1855 112.756C59.1855 85.832 81.0894 63.9277 108.014 63.9277C110.71 63.9277 112.896 61.7417 112.896 59.0449V39.6797C111.282 39.5732 109.655 39.5137 108.014 39.5137C106.373 39.5137 104.745 39.5732 103.131 39.6797V54.3638C73.0986 56.8535 49.4199 82.0918 49.4199 112.756Z" fill="#DDDDDD"/>
</svg>
