<svg width="20" height="18" viewBox="0 0 20 18" fill="none" xmlns="http://www.w3.org/2000/svg">
<path d="M17.37 5.27494V5.77494C17.37 10.8099 13.55 16.5799 6.56 16.5799C4.49647 16.5844 2.47677 15.9847 0.75 14.8549C1.04989 14.8957 1.35239 14.9141 1.655 14.9099C3.3655 14.9146 5.02791 14.3441 6.375 13.2899C5.58034 13.2782 4.80958 13.0163 4.17228 12.5415C3.53498 12.0667 3.06355 11.403 2.825 10.6449C3.06171 10.6951 3.30303 10.7203 3.545 10.7199C3.88288 10.72 4.21923 10.6746 4.545 10.5849C3.68429 10.4134 2.90996 9.94801 2.3545 9.2685C1.79904 8.589 1.49698 7.73758 1.5 6.85994V6.80995C2.0266 7.10411 2.61698 7.26543 3.22 7.27994C2.4173 6.75173 1.84659 5.93693 1.62448 5.00205C1.40238 4.06716 1.54564 3.08275 2.025 2.24994C2.98013 3.42469 4.17179 4.38528 5.52252 5.06926C6.87325 5.75324 8.35281 6.14529 9.865 6.21995C9.79014 5.93616 9.75481 5.64339 9.76 5.34995C9.73185 4.5744 9.9434 3.80902 10.3659 3.15802C10.7883 2.50703 11.4011 2.00205 12.1209 1.71185C12.8407 1.42166 13.6324 1.36034 14.3882 1.53625C15.1441 1.71216 15.8273 2.11676 16.345 2.69494C17.1959 2.52323 18.0121 2.21059 18.76 1.76994C18.4764 2.66563 17.873 3.4256 17.065 3.90494C17.8198 3.80094 18.5557 3.58876 19.25 3.27494C18.7468 4.04776 18.1102 4.72497 17.37 5.27494V5.27494Z" stroke="#505050" stroke-linecap="round" stroke-linejoin="round"/>
</svg>
