<svg width="24" height="24" viewBox="0 0 24 24" fill="none" xmlns="http://www.w3.org/2000/svg">
<g clip-path="url(#clip0_160_18956)">
<path d="M22.4039 12.3109C22.3074 12.1134 22.3074 11.8868 22.4039 11.6892L23.299 9.85808C23.7974 8.83851 23.4025 7.62328 22.4001 7.09139L20.5996 6.13609C20.4054 6.03306 20.2722 5.84968 20.2342 5.63317L19.8821 3.62557C19.686 2.50779 18.652 1.75667 17.5286 1.91562L15.5105 2.20109C15.2926 2.23184 15.0773 2.16181 14.9192 2.00895L13.4544 0.591835C12.6387 -0.197255 11.3609 -0.197302 10.5453 0.591835L9.08034 2.00909C8.92228 2.162 8.70689 2.23189 8.48911 2.20123L6.47102 1.91577C5.3472 1.75672 4.31361 2.50793 4.11753 3.62571L3.76541 5.63322C3.72739 5.84978 3.59422 6.0331 3.40002 6.13618L1.59956 7.09149C0.597101 7.62333 0.202229 8.83865 0.7006 9.85822L1.59567 11.6893C1.69223 11.8869 1.69223 12.1135 1.59567 12.311L0.700554 14.1422C0.202182 15.1617 0.597054 16.377 1.59952 16.9088L3.39997 17.8642C3.59422 17.9672 3.72739 18.1506 3.76541 18.3671L4.11753 20.3747C4.29603 21.3922 5.16856 22.1058 6.17135 22.1058C6.27011 22.1058 6.37033 22.0988 6.47106 22.0846L8.48916 21.7991C8.7068 21.7682 8.92233 21.8384 9.08039 21.9912L10.5453 23.4084C10.9532 23.8029 11.4764 24.0002 11.9998 24.0002C12.5231 24.0001 13.0466 23.8029 13.4543 23.4084L14.9192 21.9912C15.0773 21.8384 15.2927 21.7685 15.5105 21.7991L17.5286 22.0846C18.6525 22.2436 19.686 21.4924 19.8821 20.3746L20.2342 18.3671C20.2722 18.1506 20.4054 17.9672 20.5996 17.8642L22.4001 16.9088C23.4025 16.377 23.7974 15.1617 23.299 14.1421L22.4039 12.3109ZM21.7513 15.686L19.9508 16.6413C19.3768 16.946 18.9831 17.4877 18.8708 18.1279L18.5187 20.1354C18.4524 20.5136 18.1027 20.7676 17.7224 20.7139L15.7043 20.4285C15.0608 20.3373 14.4239 20.5444 13.9568 20.9963L12.4919 22.4133C12.216 22.6803 11.7837 22.6803 11.5077 22.4133L10.0428 20.9962C9.648 20.6143 9.13191 20.4074 8.59313 20.4074C8.49441 20.4074 8.3949 20.4143 8.29524 20.4284L6.27714 20.7139C5.89718 20.7676 5.54726 20.5136 5.48088 20.1354L5.12871 18.1278C5.0164 17.4877 4.62275 16.9458 4.04867 16.6413L2.24822 15.686C1.90903 15.506 1.77544 15.0949 1.94405 14.7499L2.83916 12.9188C3.12454 12.3349 3.12454 11.6652 2.83916 11.0814L1.94405 9.25021C1.77544 8.90526 1.90903 8.49412 2.24822 8.31417L4.04867 7.35886C4.6227 7.05422 5.0164 6.51244 5.12867 5.87232L5.48079 3.86477C5.54716 3.48659 5.89676 3.23252 6.27705 3.28624L8.29515 3.57171C8.9385 3.66279 9.57557 3.45574 10.0427 3.00392L11.5076 1.5868C11.7835 1.31989 12.2158 1.31989 12.4918 1.5868L13.9567 3.00392C14.4238 3.45579 15.0608 3.66279 15.7043 3.57171L17.7224 3.28624C18.1024 3.23248 18.4523 3.48659 18.5186 3.86477L18.8707 5.87237C18.983 6.51249 19.3767 7.05432 19.9508 7.35886L21.7512 8.31417C22.0904 8.49412 22.224 8.90526 22.0554 9.25021L21.1603 11.0813C20.8749 11.6652 20.8749 12.3349 21.1603 12.9187L22.0554 14.7498C22.2241 15.0949 22.0905 15.5061 21.7513 15.686Z" fill="#212121"/>
<path d="M17.0571 6.94294C16.7869 6.67266 16.3486 6.67266 16.0783 6.94294L6.94294 16.0783C6.67266 16.3486 6.67266 16.7869 6.94294 17.0571C7.07808 17.1923 7.25522 17.2599 7.43232 17.2599C7.60941 17.2599 7.7866 17.1923 7.92169 17.0571L17.0571 7.92178C17.3274 7.65145 17.3274 7.21327 17.0571 6.94294Z" fill="#212121"/>
<path d="M9.23112 5.77148C7.83181 5.77148 6.69336 6.90994 6.69336 8.30925C6.69336 9.70856 7.83181 10.847 9.23112 10.847C10.6304 10.847 11.7689 9.70856 11.7689 8.30925C11.7689 6.90994 10.6304 5.77148 9.23112 5.77148ZM9.23112 9.46275C8.59508 9.46275 8.07762 8.94529 8.07762 8.3092C8.07762 7.67315 8.59508 7.1557 9.23112 7.1557C9.86717 7.1557 10.3847 7.67315 10.3847 8.3092C10.3846 8.94529 9.86717 9.46275 9.23112 9.46275Z" fill="#212121"/>
<path d="M14.7682 13.1533C13.3689 13.1533 12.2305 14.2918 12.2305 15.6911C12.2305 17.0904 13.3689 18.2289 14.7682 18.2289C16.1675 18.2289 17.306 17.0904 17.306 15.6911C17.306 14.2918 16.1675 13.1533 14.7682 13.1533ZM14.7682 16.8446C14.1322 16.8446 13.6147 16.3271 13.6147 15.6911C13.6147 15.055 14.1321 14.5376 14.7682 14.5376C15.4043 14.5376 15.9217 15.055 15.9217 15.6911C15.9217 16.3271 15.4043 16.8446 14.7682 16.8446Z" fill="#212121"/>
</g>
<defs>
<clipPath id="clip0_160_18956">
<rect width="24" height="24" fill="white"/>
</clipPath>
</defs>
</svg>
