<svg width="40" height="41" viewBox="0 0 40 41" fill="none" xmlns="http://www.w3.org/2000/svg">
<path d="M4.29935 32.1838L4.26602 32.2171C3.81602 31.2338 3.53268 30.1171 3.41602 28.8838C3.53268 30.1005 3.84935 31.2005 4.29935 32.1838Z" fill="#212121"/>
<path d="M14.9999 17.7995C17.1906 17.7995 18.9665 16.0236 18.9665 13.8329C18.9665 11.6421 17.1906 9.86621 14.9999 9.86621C12.8091 9.86621 11.0332 11.6421 11.0332 13.8329C11.0332 16.0236 12.8091 17.7995 14.9999 17.7995Z" fill="#212121"/>
<path d="M26.984 3.83301H13.0173C6.95065 3.83301 3.33398 7.44967 3.33398 13.5163V27.483C3.33398 29.2997 3.65065 30.883 4.26732 32.2163C5.70065 35.383 8.76732 37.1663 13.0173 37.1663H26.984C33.0507 37.1663 36.6673 33.5497 36.6673 27.483V23.6663V13.5163C36.6673 7.44967 33.0507 3.83301 26.984 3.83301ZM33.9507 21.333C32.6507 20.2163 30.5507 20.2163 29.2507 21.333L22.3173 27.283C21.0173 28.3997 18.9173 28.3997 17.6173 27.283L17.0507 26.8163C15.8673 25.783 13.984 25.683 12.6507 26.583L6.41732 30.7663C6.05065 29.833 5.83398 28.7497 5.83398 27.483V13.5163C5.83398 8.81634 8.31732 6.33301 13.0173 6.33301H26.984C31.684 6.33301 34.1673 8.81634 34.1673 13.5163V21.5163L33.9507 21.333Z" fill="#212121"/>
</svg>
