<svg width="24" height="24" viewBox="0 0 24 24" fill="none" xmlns="http://www.w3.org/2000/svg">
<path d="M21.6492 16.6738C21.5699 16.5512 21.441 16.4694 21.2962 16.4498C19.3921 16.2011 18.0502 14.4559 18.2989 12.5518C18.4746 11.2068 19.4164 10.0868 20.7113 9.68286C20.9742 9.59858 21.1191 9.3171 21.0348 9.05413C21.0217 9.01321 21.0034 8.97412 20.9803 8.93783C20.1065 7.36088 18.5528 6.27634 16.7713 5.99988C15.8736 6.04272 14.9889 6.23223 14.1523 6.56087C13.5516 6.80265 12.9172 6.95073 12.2714 6.99985C11.6256 6.95073 10.9912 6.80265 10.3904 6.56087C9.55386 6.23223 8.66915 6.04272 7.77141 5.99988C5.90445 5.99988 2.27148 8.64684 2.27148 13.4998C2.27148 18.1117 5.63543 23.9997 8.27142 23.9997C9.27721 24.0087 10.2709 23.7798 11.1714 23.3317C11.5105 23.1447 11.8854 23.0315 12.2714 22.9997C12.6574 23.0315 13.0323 23.1447 13.3714 23.3317C14.2719 23.7798 15.2656 24.0087 16.2714 23.9997C18.3614 23.9997 20.7204 20.4117 21.7083 17.0868C21.7497 16.9472 21.7281 16.7963 21.6492 16.6738Z" fill="white"/>
<path d="M11.7714 5.99994C14.8076 5.99662 17.2681 3.53617 17.2714 0.500011C17.2714 0.223873 17.0476 0 16.7714 0C13.7353 0.00332809 11.2748 2.46377 11.2715 5.49993C11.2714 5.77607 11.4953 5.99994 11.7714 5.99994Z" fill="white"/>
</svg>
