<svg width="24" height="24" viewBox="0 0 24 24" fill="none" xmlns="http://www.w3.org/2000/svg">
<path d="M0.481216 0.371091C0.178767 0.658472 0 1.10447 0 1.68203V22.3175C0 22.896 0.178767 23.341 0.481216 23.6284L0.558127 23.6956L13.4346 12.136V11.9998V11.8635L0.558127 0.302979L0.481216 0.371091Z" fill="url(#paint0_linear_1002_10430)"/>
<path d="M17.727 15.9913L13.4355 12.1368V12.0006V11.8644L17.728 8.01086L17.8247 8.06032L22.9102 10.6542C24.3632 11.3951 24.3632 12.6071 22.9102 13.3489L17.8247 15.9428L17.727 15.9913Z" fill="url(#paint1_linear_1002_10430)"/>
<path d="M17.825 15.941L13.4358 11.9998L0.481445 23.6284C0.960583 24.0837 1.75048 24.1397 2.6412 23.6853L17.825 15.941Z" fill="url(#paint2_linear_1002_10430)"/>
<path d="M17.8249 8.05852L2.64218 0.314162C1.75146 -0.140236 0.961559 -0.0833198 0.482422 0.371078L13.4358 11.9997L17.8249 8.05852Z" fill="url(#paint3_linear_1002_10430)"/>
<path opacity="0.2" d="M17.7283 15.8541L2.64224 23.549C1.79829 23.9792 1.04373 23.9512 0.559396 23.5593L0.481445 23.6293L0.558356 23.6965C1.04269 24.0883 1.79725 24.1173 2.6412 23.6862L17.8239 15.9418L17.7283 15.8541Z" fill="#212121"/>
<path opacity="0.12" d="M0.481216 23.4921C0.178767 23.2047 0 22.7587 0 22.1812V22.3174C0 22.8949 0.178767 23.3409 0.481216 23.6283L0.559167 23.5583L0.481216 23.4921Z" fill="#212121"/>
<path opacity="0.12" d="M22.9107 13.2108L17.7285 15.8541L17.8252 15.9409L22.9107 13.347C23.6372 12.9766 23.9999 12.4886 23.9999 12.0006C23.9386 12.4419 23.5686 12.8749 22.9107 13.2108Z" fill="#212121"/>
<path opacity="0.25" d="M2.64097 0.450358L22.9092 10.7886C23.5682 11.1245 23.9371 11.5574 23.9984 11.9997C23.9984 11.5117 23.6357 11.0228 22.9092 10.6524L2.64097 0.314132C1.18797 -0.426714 0 0.188169 0 1.68199V1.81915C0 0.325328 1.18901 -0.290488 2.64097 0.450358Z" fill="white"/>
<defs>
<linearGradient id="paint0_linear_1002_10430" x1="12.2929" y1="1.46445" x2="-3.27528" y2="18.8061" gradientUnits="userSpaceOnUse">
<stop stop-color="#00A0FF"/>
<stop offset="0.0066" stop-color="#00A1FF"/>
<stop offset="0.2601" stop-color="#00BEFF"/>
<stop offset="0.5122" stop-color="#00D2FF"/>
<stop offset="0.7604" stop-color="#00DFFF"/>
<stop offset="1" stop-color="#00E3FF"/>
</linearGradient>
<linearGradient id="paint1_linear_1002_10430" x1="24.8011" y1="12.0001" x2="-0.34781" y2="12.0001" gradientUnits="userSpaceOnUse">
<stop stop-color="#FFE000"/>
<stop offset="0.4087" stop-color="#FFBD00"/>
<stop offset="0.7754" stop-color="#FFA500"/>
<stop offset="1" stop-color="#FF9C00"/>
</linearGradient>
<linearGradient id="paint2_linear_1002_10430" x1="15.4396" y1="14.1413" x2="-5.6722" y2="37.658" gradientUnits="userSpaceOnUse">
<stop stop-color="#FF3A44"/>
<stop offset="1" stop-color="#C31162"/>
</linearGradient>
<linearGradient id="paint3_linear_1002_10430" x1="-2.77987" y1="-6.49779" x2="6.64749" y2="4.00338" gradientUnits="userSpaceOnUse">
<stop stop-color="#32A071"/>
<stop offset="0.0685" stop-color="#2DA771"/>
<stop offset="0.4762" stop-color="#15CF74"/>
<stop offset="0.8009" stop-color="#06E775"/>
<stop offset="1" stop-color="#00F076"/>
</linearGradient>
</defs>
</svg>
