<?xml version="1.0" encoding="utf-8"?>
<!-- Generator: Adobe Illustrator 22.1.0, SVG Export Plug-In . SVG Version: 6.00 Build 0)  -->
<svg version="1.1" id="Layer_1" xmlns="http://www.w3.org/2000/svg" xmlns:xlink="http://www.w3.org/1999/xlink" x="0px" y="0px"
	 viewBox="0 0 44 44" style="enable-background:new 0 0 44 44;" xml:space="preserve">
<style type="text/css">
	.st0{fill:#FFFFFF;}
</style>
<path class="st0" d="M33.7,13.2c0,1.7-0.2,3.2-0.2,4.7c0,0.4,0,0.4,0.4,0.4c0.6,0.2,1.5-0.2,2.1-0.4c0.9-0.4,1.9-0.2,2.8,0.4
	c0.6,0.6,0.6,1.3,0,1.9c-0.4,0.4-0.9,0.6-1.5,0.9c-0.6,0.2-1.3,0.4-1.9,0.6c-0.2,0-0.4,0.2-0.6,0.4c-0.6,0.4-0.9,0.9-0.6,1.7
	c0.2,0.6,0.4,1.1,0.6,1.5c1.1,2.1,2.8,3.8,4.7,5.1c0.9,0.6,1.9,0.9,3,1.1h0.2c0.9,0.2,1.1,0.9,0.6,1.5c-0.2,0.4-0.9,0.9-1.3,1.1
	c-1.3,0.6-2.6,0.9-3.8,1.1c-0.4,0-0.4,0.2-0.6,0.4c0,0.4-0.2,1.1-0.4,1.5c-0.2,0.6-0.4,0.9-1.1,0.9s-1.1-0.2-1.7-0.2
	c-1.1-0.2-2.1-0.2-3.2,0c-0.9,0.2-1.5,0.6-2.3,1.1c-0.9,0.6-1.7,1.1-2.6,1.7c-1.3,0.6-2.6,1.1-4,1.1c-1.5,0-3-0.2-4.3-1.1
	c-0.9-0.4-1.5-1.1-2.3-1.5c-0.4-0.2-1.1-0.6-1.5-0.9c-0.6-0.4-1.5-0.4-2.3-0.6c-1.3,0-2.3,0.2-3.6,0.4c-0.6,0.2-1.1-0.2-1.3-0.9
	c-0.2-0.4-0.2-0.9-0.4-1.5c0-0.4-0.2-0.4-0.6-0.4c-1.1-0.2-2.1-0.4-3.2-0.6C2,34.2,1.6,34,1,33.6c-0.2-0.2-0.4-0.4-0.4-0.6
	c-0.2-0.6,0-1.1,0.6-1.3c1.5-0.2,3-0.9,4.3-1.9c1.5-1.1,2.8-2.6,3.6-4.3c0.2-0.6,0.6-1.1,0.9-1.7c0.2-0.6,0-1.3-0.6-1.7
	c-0.6-0.4-1.3-0.6-1.9-0.9c-0.9-0.2-1.5-0.6-2.1-1.1c-0.9-0.9-0.9-1.9,0.2-2.6c0.6-0.4,1.5-0.6,2.1-0.2c0.6,0.2,1.3,0.4,2.1,0.4
	c0.4,0,0.4-0.2,0.4-0.6c0-1.9-0.2-3.6-0.2-5.5c0-1.3,0.2-2.6,0.6-3.6c1.5-3.6,4.3-5.7,8.1-6.6c1.3-0.2,2.6-0.4,3.8-0.2
	C25,1.5,27.1,2.1,29,3.6c1.9,1.5,3.4,3.6,3.8,6.2C33.7,11.1,33.7,12.1,33.7,13.2z"/>
</svg>
