<?xml version="1.0" encoding="utf-8"?>
<!-- Generator: Adobe Illustrator 22.1.0, SVG Export Plug-In . SVG Version: 6.00 Build 0)  -->
<svg version="1.1" id="Layer_1" xmlns="http://www.w3.org/2000/svg" xmlns:xlink="http://www.w3.org/1999/xlink" x="0px" y="0px"
	 viewBox="0 0 44 44" style="enable-background:new 0 0 44 44;" xml:space="preserve">
<style type="text/css">
	.st0{fill:#FFFFFF;}
</style>
<path class="st0" d="M40.6,11.2c0,2.4,0,4.8,0,7.2c-3.7,0-7.2-1.3-10.5-3.5c0,0.2,0,0.4,0,0.4c0,4.1,0,8.3,0,12.7
	c0,1.3,0,2.4-0.2,3.7c-0.7,5.5-4.8,10-10,11.4c-0.7,0.2-1.5,0.2-2.2,0.4c-0.7,0-1.5,0-2.2,0c-0.7,0-1.1-0.2-1.7-0.2
	c-8.3-2-12.7-10.5-9.6-18.1c2.2-5.9,8.3-9.4,14.4-8.5c0.4,0,0.4,0.2,0.4,0.7c0,1.5,0,3.1,0,4.8c0,0.9,0,1.7,0,2.8
	c-0.2,0-0.4,0-0.7-0.2c-4.4-1.1-8.3,2.6-7.4,7c0.4,2.4,2.4,4.4,4.6,5c2.4,0.4,4.8-0.4,6.3-2.4c0.4-0.7,1.1-1.5,1.1-2.4
	c0-1.3,0-2.6,0-3.9c0-7.6,0-15.1,0-22.7c0-1.3,0-2.8,0-4.1c0-0.2,0-0.2,0-0.4c2.4,0,4.6,0,7,0c0,0.2,0,0.7,0,0.9
	c0.2,2.2,1.1,4.1,2.4,5.9C34.5,9.9,37.4,11,40.6,11.2z"/>
</svg>
