<svg width="24" height="24" viewBox="0 0 24 24" fill="none" xmlns="http://www.w3.org/2000/svg">
<path d="M19.37 8.27501V8.77501C19.37 13.81 15.55 19.58 8.56 19.58C6.49647 19.5845 4.47677 18.9848 2.75 17.855C3.04989 17.8957 3.35239 17.9141 3.655 17.91C5.3655 17.9147 7.02791 17.3441 8.375 16.29C7.58034 16.2783 6.80958 16.0164 6.17228 15.5416C5.53498 15.0667 5.06355 14.4031 4.825 13.645C5.06171 13.6952 5.30303 13.7203 5.545 13.72C5.88288 13.7201 6.21923 13.6747 6.545 13.585C5.68429 13.4134 4.90996 12.9481 4.3545 12.2686C3.79904 11.5891 3.49698 10.7376 3.5 9.86001V9.81001C4.0266 10.1042 4.61698 10.2655 5.22 10.28C4.4173 9.75179 3.84659 8.937 3.62448 8.00211C3.40238 7.06722 3.54564 6.08281 4.025 5.25001C4.98013 6.42475 6.17179 7.38534 7.52252 8.06932C8.87325 8.7533 10.3528 9.14536 11.865 9.22001C11.7901 8.93622 11.7548 8.64346 11.76 8.35001C11.7318 7.57446 11.9434 6.80908 12.3659 6.15808C12.7883 5.50709 13.4011 5.00211 14.1209 4.71191C14.8407 4.42172 15.6324 4.3604 16.3882 4.53631C17.1441 4.71223 17.8273 5.11682 18.345 5.69501C19.1959 5.52329 20.0121 5.21065 20.76 4.77001C20.4764 5.66569 19.873 6.42566 19.065 6.90501C19.8198 6.801 20.5557 6.58882 21.25 6.27501C20.7468 7.04783 20.1102 7.72503 19.37 8.27501V8.27501Z" stroke="white" stroke-linecap="round" stroke-linejoin="round"/>
</svg>
